<svg width="46" height="46" viewBox="0 0 46 46" fill="none" xmlns="http://www.w3.org/2000/svg">
<g clip-path="url(#clip0_269_2862)">
<path opacity="0.997" fill-rule="evenodd" clip-rule="evenodd" d="M20.8887 -0.0449219C22.2662 -0.0449219 23.6439 -0.0449219 25.0215 -0.0449219C28.3589 0.308763 31.5034 1.29705 34.4551 2.91992C33.8562 3.78892 33.8562 4.6574 34.4551 5.52539C33.9493 6.07626 33.4251 6.61532 32.8828 7.14258C30.2799 5.41659 27.4199 4.68287 24.3027 4.94141C23.2101 5.08559 22.2219 5.47491 21.3379 6.10938C19.7357 7.71159 18.1334 9.31383 16.5312 10.916C15.5782 12.181 15.4434 13.5287 16.127 14.959C15.2747 15.8562 14.4063 16.7396 13.5215 17.6094C12.9158 17.4196 12.2869 17.3149 11.6348 17.2949C10.9573 17.2541 10.3584 17.4338 9.83789 17.834C9.68021 17.8854 9.53045 17.9603 9.38867 18.0586C6.3758 21.0864 3.35105 24.0962 0.314453 27.0879C0.172647 26.4025 0.0528553 25.7137 -0.0449219 25.0215C-0.0449219 23.6439 -0.0449219 22.2662 -0.0449219 20.8887C0.933252 12.8348 4.91632 6.77038 11.9043 2.69531C14.7318 1.1954 17.7265 0.281984 20.8887 -0.0449219Z" fill="#4BCCE2"/>
<path opacity="0.996" fill-rule="evenodd" clip-rule="evenodd" d="M40.2949 11.4551C40.5199 11.6028 40.7595 11.7375 41.0137 11.8594C41.403 11.9193 41.7923 11.9193 42.1816 11.8594C42.4432 11.7012 42.7127 11.5664 42.9902 11.4551C44.6131 14.4067 45.6014 17.5512 45.9551 20.8887C45.9551 22.2662 45.9551 23.6439 45.9551 25.0215C44.9769 33.0754 40.9938 39.1399 34.0059 43.2148C31.1784 44.7148 28.1836 45.6281 25.0215 45.9551C23.6439 45.9551 22.2662 45.9551 20.8887 45.9551C20.2048 45.858 19.5159 45.7381 18.8223 45.5957C19.0918 45.2963 19.3613 44.9967 19.6309 44.6973C22.383 41.9901 25.1232 39.2649 27.8516 36.5215C27.9768 36.3519 28.0816 36.1722 28.166 35.9824C28.4897 35.4451 28.6395 34.8611 28.6152 34.2305C28.601 33.5923 28.4962 32.9784 28.3008 32.3887C29.1706 31.5039 30.054 30.6355 30.9512 29.7832C32.4339 30.4885 33.8114 30.3238 35.084 29.2891C36.7786 27.6244 38.4407 25.9323 40.0703 24.2129C40.665 23.0922 40.9794 21.8942 41.0137 20.6191C41.055 17.8532 40.3062 15.3226 38.7676 13.0273C39.295 12.5151 39.804 11.991 40.2949 11.4551Z" fill="#4BCCE2"/>
<ellipse cx="23.5688" cy="22.594" rx="18.972" ry="18.5764" transform="rotate(-0.274135 23.5688 22.594)" fill="#C7EFF6"/>
<path opacity="0.993" fill-rule="evenodd" clip-rule="evenodd" d="M37.6895 -0.0449219C38.1088 -0.0449219 38.528 -0.0449219 38.9473 -0.0449219C39.1511 0.0876659 39.3607 0.222432 39.5762 0.359375C41.5678 2.35091 43.5592 4.34244 45.5508 6.33398C45.6877 6.54944 45.8225 6.75907 45.9551 6.96289C45.9551 7.38216 45.9551 7.80143 45.9551 8.2207C45.8225 8.42452 45.6877 8.63416 45.5508 8.84961C44.6791 9.70627 43.8256 10.5748 42.9903 11.4551C42.7127 11.5664 42.4432 11.7012 42.1817 11.8594C41.7924 11.9193 41.403 11.9193 41.0137 11.8594C40.7595 11.7375 40.5199 11.6028 40.2949 11.4551C39.2815 10.2918 38.2034 9.18374 37.0606 8.13086C36.2221 7.23242 35.3535 6.36393 34.4551 5.52539C33.8562 4.6574 33.8562 3.78892 34.4551 2.91992C35.3354 2.08457 36.2039 1.23106 37.0606 0.359375C37.276 0.222432 37.4856 0.0876659 37.6895 -0.0449219Z" fill="#2C595E"/>
<path fill-rule="evenodd" clip-rule="evenodd" d="M38.6778 1.57227C39.6509 1.54699 40.0252 1.99621 39.8008 2.91992C38.8623 3.85842 37.9189 4.80178 36.9707 5.75C36.407 6.01654 35.9727 5.88178 35.668 5.34571C35.5946 5.03446 35.6246 4.73498 35.7578 4.44727C36.7217 3.46833 37.695 2.50999 38.6778 1.57227Z" fill="#1E4550"/>
<path fill-rule="evenodd" clip-rule="evenodd" d="M40.9238 3.72851C41.7902 3.7113 42.1646 4.13057 42.0469 4.98633C41.1361 5.98695 40.1928 6.96026 39.2168 7.90625C38.1893 8.22631 37.7252 7.85196 37.8242 6.7832C38.848 5.74437 39.8812 4.72614 40.9238 3.72851Z" fill="#1E4550"/>
<path fill-rule="evenodd" clip-rule="evenodd" d="M34.4551 5.52539C35.3535 6.36393 36.222 7.23242 37.0605 8.13086C36.215 8.89837 35.2267 9.15292 34.0957 8.89453C31.8581 7.78218 29.4923 7.30301 26.998 7.45703C26.2966 7.59493 25.6078 7.77462 24.9316 7.99609C24.6322 8.17578 24.3327 8.35547 24.0332 8.53516C22.3711 10.1973 20.709 11.8594 19.0469 13.5215C18.6873 13.9719 18.4477 14.481 18.3281 15.0488C18.7694 17.2354 18.0058 18.8076 16.0371 19.7656C15.7273 19.8428 15.4129 19.8877 15.0938 19.9004C14.1685 19.7327 13.2851 19.8525 12.4434 20.2598C12.4134 20.2598 12.3834 20.2598 12.3535 20.2598C11.515 19.4512 10.6764 18.6426 9.83789 17.834C10.3584 17.4338 10.9573 17.2541 11.6348 17.2949C12.2869 17.3149 12.9158 17.4196 13.5215 17.6094C14.4063 16.7396 15.2747 15.8562 16.127 14.959C15.4434 13.5287 15.5782 12.181 16.5312 10.916C18.1334 9.31383 19.7357 7.71159 21.3379 6.10937C22.2219 5.47491 23.2101 5.08559 24.3027 4.94141C27.4199 4.68287 30.2799 5.41659 32.8828 7.14258C33.4251 6.61532 33.9493 6.07626 34.4551 5.52539Z" fill="#FFC34B"/>
<path fill-rule="evenodd" clip-rule="evenodd" d="M43.1699 5.97461C44.0363 5.95739 44.4107 6.37667 44.293 7.23242C43.3822 8.23305 42.4389 9.20638 41.4629 10.1523C40.4354 10.4724 39.9713 10.0981 40.0703 9.02929C41.0941 7.99047 42.1273 6.97223 43.1699 5.97461Z" fill="#1E4550"/>
<path fill-rule="evenodd" clip-rule="evenodd" d="M37.0605 8.13087C38.2034 9.18375 39.2815 10.2918 40.2949 11.4551C39.804 11.991 39.295 12.5151 38.7676 13.0274C40.3062 15.3226 41.055 17.8532 41.0137 20.6191C31.61 20.6191 22.2064 20.6191 12.8027 20.6191C12.653 20.5293 12.5332 20.4095 12.4434 20.2598C13.2851 19.8525 14.1685 19.7327 15.0938 19.9004C15.4129 19.8877 15.7273 19.8428 16.0371 19.7656C18.0058 18.8076 18.7694 17.2354 18.3281 15.0488C18.4477 14.481 18.6873 13.9719 19.0469 13.5215C20.709 11.8594 22.3711 10.1973 24.0332 8.53516C24.3327 8.35548 24.6322 8.17579 24.9316 7.9961C25.6078 7.77463 26.2966 7.59494 26.998 7.45704C29.4923 7.30302 31.8581 7.78218 34.0957 8.89454C35.2267 9.15293 36.215 8.89837 37.0605 8.13087Z" fill="#FFECC7"/>
<path fill-rule="evenodd" clip-rule="evenodd" d="M9.83789 17.834C10.6764 18.6426 11.515 19.4512 12.3535 20.2598C8.1114 24.9859 7.16804 30.3167 9.52344 36.252C10.573 38.5294 12.1152 40.4011 14.1504 41.8672C15.6385 42.9261 17.2257 43.8245 18.9121 44.5625C19.1424 44.6594 19.3819 44.7044 19.6309 44.6973C19.3613 44.9967 19.0918 45.2963 18.8223 45.5957C11.6745 44.1808 6.29881 40.3176 2.69531 34.0059C1.51632 31.8315 0.722696 29.5254 0.314453 27.0879C3.35105 24.0962 6.3758 21.0864 9.38867 18.0586C9.53045 17.9603 9.68021 17.8854 9.83789 17.834Z" fill="#E6B044"/>
<path fill-rule="evenodd" clip-rule="evenodd" d="M12.3535 20.2598C12.3834 20.2598 12.4134 20.2598 12.4434 20.2598C12.5332 20.4095 12.653 20.5293 12.8027 20.6191C17.8939 25.7702 23.015 30.8912 28.166 35.9824C28.0816 36.1722 27.9768 36.3519 27.8516 36.5215C25.1232 39.2649 22.383 41.9901 19.6309 44.6973C19.3819 44.7044 19.1424 44.6594 18.9121 44.5625C17.2257 43.8245 15.6385 42.9261 14.1504 41.8672C12.1153 40.4011 10.573 38.5294 9.52345 36.252C7.16805 30.3167 8.11141 24.9859 12.3535 20.2598Z" fill="#FFC34B"/>
<path fill-rule="evenodd" clip-rule="evenodd" d="M12.8027 20.6191C22.2064 20.6191 31.61 20.6191 41.0137 20.6191C40.9794 21.8942 40.665 23.0922 40.0703 24.2129C38.4407 25.9323 36.7786 27.6244 35.084 29.2891C33.8114 30.3238 32.4339 30.4885 30.9512 29.7832C30.054 30.6355 29.1706 31.5039 28.3008 32.3887C28.4962 32.9784 28.601 33.5923 28.6152 34.2305C28.6395 34.8611 28.4897 35.4451 28.166 35.9824C23.015 30.8912 17.8939 25.7702 12.8027 20.6191Z" fill="#FFF6E4"/>
</g>
<defs>
<clipPath id="clip0_269_2862">
<rect width="46" height="46" fill="white"/>
</clipPath>
</defs>
</svg>
