<svg width="64" height="45" viewBox="0 0 64 45" fill="none" xmlns="http://www.w3.org/2000/svg">
<g clip-path="url(#clip0_267_1185)">
<path d="M57.049 14.8143H6.94907V41.5929H57.049V14.8143Z" fill="#EBCE86"/>
<path d="M57.0509 41.5929H48.1243L52.4777 14.8143H57.0509V41.5929Z" fill="#E3C476"/>
<path d="M57.049 41.5929H6.94907V44.1774H57.049V41.5929Z" fill="#D49B22"/>
<path d="M57.0509 44.1774H46.9792L47.5378 41.5929H57.0509V44.1774Z" fill="#BF8726"/>
<path d="M25.8097 34.8973H22.9813V36.1877H25.8097V34.8973Z" fill="#E3C476"/>
<path d="M28.8504 34.8973H26.0219V36.1877H28.8504V34.8973Z" fill="#E3C476"/>
<path d="M27.223 36.608H24.3945V37.8984H27.223V36.608Z" fill="#E3C476"/>
<path d="M19.4192 36.3978H16.5907V37.6882H19.4192V36.3978Z" fill="#E3C476"/>
<path d="M20.7636 37.902H17.9351V39.1924H20.7636V37.902Z" fill="#E3C476"/>
<path d="M23.7503 30.7417H20.9218V32.0321H23.7503V30.7417Z" fill="#E3C476"/>
<path d="M51.5244 27.3594H48.696V28.6498H51.5244V27.3594Z" fill="#E3C476"/>
<path d="M13.3712 32.7423H10.5428V34.0327H13.3712V32.7423Z" fill="#E3C476"/>
<path d="M14.887 31.0838H12.0586V32.3742H14.887V31.0838Z" fill="#E3C476"/>
<path d="M11.9561 26.9988H9.12766V28.2892H11.9561V26.9988Z" fill="#E3C476"/>
<path d="M11.2505 37.043H8.42203V38.3334H11.2505V37.043Z" fill="#E3C476"/>
<path d="M14.3563 37.043H11.5278V38.3334H14.3563V37.043Z" fill="#E3C476"/>
<path d="M12.7773 38.5473H9.94882V39.8377H12.7773V38.5473Z" fill="#E3C476"/>
<path d="M19.192 25.2101H16.3636V26.5005H19.192V25.2101Z" fill="#E3C476"/>
<path d="M20.5382 26.7142H17.7098V28.0046H20.5382V26.7142Z" fill="#E3C476"/>
<path d="M22.3351 25.2101H19.5067V26.5005H22.3351V25.2101Z" fill="#E3C476"/>
<path d="M48.4762 33.8096H45.6478V35.1H48.4762V33.8096Z" fill="#E3C476"/>
<path d="M50.3867 35.5184H47.5564V36.8088H50.3867V35.5184Z" fill="#E3C476"/>
<path d="M41.8716 36.3978H39.0432V37.6882H41.8716V36.3978Z" fill="#E3C476"/>
<path d="M43.2178 37.902H40.3894V39.1924H43.2178V37.902Z" fill="#E3C476"/>
<path d="M39.2424 30.7417H36.414V32.0321H39.2424V30.7417Z" fill="#E3C476"/>
<path d="M42.2589 30.7417H39.4305V32.0321H42.2589V30.7417Z" fill="#E3C476"/>
<path d="M35.2558 38.2869H32.4273V39.5773H35.2558V38.2869Z" fill="#E3C476"/>
<path d="M30.9824 27.5583H28.1539V28.8488H30.9824V27.5583Z" fill="#E3C476"/>
<path d="M32.3975 26.0691H29.5691V27.3595H32.3975V26.0691Z" fill="#E3C476"/>
<path d="M34.2726 34.9084H31.4442V36.1988H34.2726V34.9084Z" fill="#E3C476"/>
<path d="M37.3766 34.9084H34.5482V36.1988H37.3766V34.9084Z" fill="#E3C476"/>
<path d="M41.6463 25.2101H38.8179V26.5005H41.6463V25.2101Z" fill="#E3C476"/>
<path d="M42.9907 26.7142H40.1623V28.0046H42.9907V26.7142Z" fill="#E3C476"/>
<path d="M44.7894 25.2101H41.9609V26.5005H44.7894V25.2101Z" fill="#E3C476"/>
<path d="M33.2857 27.9136H27.3403V37.837H33.2857V27.9136Z" fill="#59AFB8"/>
<path d="M32.6005 28.4528H28.0255V37.294H32.6005V28.4528Z" fill="#75C6E9"/>
<path d="M27.3403 32.8744L30.2841 27.9136H29.2675L27.3403 31.16V32.8744Z" fill="#92D2D6"/>
<path d="M33.2857 28.5811V27.9136H31.3306L27.3403 34.6352V37.8352H27.9659L33.2857 28.5811Z" fill="#92D2D6"/>
<path d="M33.606 32.3704H27.02V33.1811H33.606V32.3704Z" fill="#59AFB8"/>
<path d="M32.7942 28.2445V37.5041H27.8318V28.2445H32.7942ZM33.606 27.4338H27.02V38.3148H33.606V27.4338Z" fill="#D49B22"/>
<path d="M33.606 32.3704H32.7942V33.1811H33.606V32.3704Z" fill="#BF8726"/>
<path d="M27.8318 32.3704H27.02V33.1811H27.8318V32.3704Z" fill="#BF8726"/>
<path d="M33.606 32.0636H27.02V32.8743H33.606V32.0636Z" fill="#D49B22"/>
<path d="M24.9643 27.9136H19.0188V37.837H24.9643V27.9136Z" fill="#59AFB8"/>
<path d="M24.2772 28.4528H19.7022V37.294H24.2772V28.4528Z" fill="#75C6E9"/>
<path d="M19.0188 32.8744L21.9627 27.9136H20.946L19.0188 31.16V32.8744Z" fill="#92D2D6"/>
<path d="M24.9624 28.5811V27.9136H23.0073L19.0188 34.6352V37.8352H19.6445L24.9624 28.5811Z" fill="#92D2D6"/>
<path d="M25.2846 32.3704H18.6985V33.1811H25.2846V32.3704Z" fill="#59AFB8"/>
<path d="M24.4727 28.2445V37.5041H19.5104V28.2445H24.4727ZM25.2846 27.4338H18.6985V38.3148H25.2846V27.4338Z" fill="#D49B22"/>
<path d="M25.2846 32.3704H24.4727V33.1811H25.2846V32.3704Z" fill="#BF8726"/>
<path d="M19.5104 32.3704H18.6985V33.1811H19.5104V32.3704Z" fill="#BF8726"/>
<path d="M25.2846 32.0636H18.6985V32.8743H25.2846V32.0636Z" fill="#D49B22"/>
<path d="M16.6429 27.9136H10.6974V37.837H16.6429V27.9136Z" fill="#59AFB8"/>
<path d="M15.9557 28.4528H11.3807V37.294H15.9557V28.4528Z" fill="#75C6E9"/>
<path d="M10.6974 32.8744L13.6413 27.9136H12.6246L10.6974 31.16V32.8744Z" fill="#92D2D6"/>
<path d="M16.641 28.5811V27.9136H14.6859L10.6974 34.6352V37.8352H11.3231L16.641 28.5811Z" fill="#92D2D6"/>
<path d="M16.9632 32.3704H10.3771V33.1811H16.9632V32.3704Z" fill="#59AFB8"/>
<path d="M16.1494 28.2445V37.5041H11.1871V28.2445H16.1494ZM16.9613 27.4338H10.3771V38.3148H16.9613V27.4338Z" fill="#D49B22"/>
<path d="M16.9613 32.3704H16.1494V33.1811H16.9613V32.3704Z" fill="#BF8726"/>
<path d="M11.189 32.3704H10.3771V33.1811H11.189V32.3704Z" fill="#BF8726"/>
<path d="M16.9632 32.0636H10.3771V32.8743H16.9632V32.0636Z" fill="#D49B22"/>
<path d="M53.3045 27.9136H47.359V37.837H53.3045V27.9136Z" fill="#59AFB8"/>
<path d="M52.6174 28.4528H48.0424V37.294H52.6174V28.4528Z" fill="#75C6E9"/>
<path d="M47.359 32.8744L50.3029 27.9136H49.2862L47.359 31.16V32.8744Z" fill="#92D2D6"/>
<path d="M53.3026 28.5811V27.9136H51.3475L47.359 34.6352V37.8352H47.9846L53.3026 28.5811Z" fill="#92D2D6"/>
<path d="M53.6247 32.3704H47.0387V33.1811H53.6247V32.3704Z" fill="#59AFB8"/>
<path d="M52.8129 28.2445V37.5041H47.8543V28.2445H52.8185M53.6303 27.4338H47.0387V38.3148H53.6266V27.4338H53.6303Z" fill="#D49B22"/>
<path d="M53.6248 32.3704H52.8129V33.1811H53.6248V32.3704Z" fill="#BF8726"/>
<path d="M47.8505 32.3704H47.0387V33.1811H47.8505V32.3704Z" fill="#BF8726"/>
<path d="M53.6247 32.0636H47.0387V32.8743H53.6247V32.0636Z" fill="#D49B22"/>
<path d="M44.916 25.8329H35.8684V43.5248H44.916V25.8329Z" fill="#59AFB8"/>
<path d="M43.877 26.7031H36.9074V42.6546H43.877V26.7031Z" fill="#75C6E9"/>
<path d="M35.8684 30.9667V32.8744L40.1697 25.8329H39.0041L35.8684 30.9667Z" fill="#92D2D6"/>
<path d="M41.501 43.5249L44.916 37.9375V34.1202L39.1679 43.5249H41.501Z" fill="#92D2D6"/>
<path d="M44.916 25.8329H43.743L35.8684 38.7184V43.5248H36.4289L44.916 29.6391V25.8329Z" fill="#92D2D6"/>
<path d="M45.2642 33.871H35.5183V35.4645H45.2642V33.871Z" fill="#59AFB8"/>
<path d="M41.2329 25.2881H39.5497V44.144H41.2329V25.2881Z" fill="#59AFB8"/>
<path d="M45.2735 34.1164H35.509V35.219H45.2735V34.1164Z" fill="#D49B22"/>
<path d="M36.9465 34.1164H35.509V35.219H36.9465V34.1164Z" fill="#BF8726"/>
<path d="M45.2549 34.1164H43.7802V35.219H45.2549V34.1164Z" fill="#BF8726"/>
<path d="M41.1994 34.1164H39.5831V35.219H41.1994V34.1164Z" fill="#BF8726"/>
<path d="M40.9424 25.1896H39.8383V44.144H40.9424V25.1896Z" fill="#D49B22"/>
<path d="M40.9424 25.1896H39.8383V26.7069H40.9424V25.1896Z" fill="#BF8726"/>
<path d="M40.9424 42.6434H39.8383V44.1607H40.9424V42.6434Z" fill="#BF8726"/>
<path d="M44.2475 26.2847V43.0729H36.5368V26.2847H44.2475ZM45.3517 25.1821H35.4308V44.1774H45.3517V25.1802V25.1821Z" fill="#D49B22"/>
<path d="M57.0509 12.94H6.95099L10.0122 1.69641H52.8743L57.0509 12.94Z" fill="#44B8CB"/>
<path d="M57.049 12.9401H6.94907V14.8125H57.049V12.9401Z" fill="#80D9D8"/>
<path d="M52.8762 0.822571H10.0122V1.69461H52.8762V0.822571Z" fill="#80D9D8"/>
<path d="M13.712 19.4479H9.14258L14.2073 14.8143H17.829L13.712 19.4479Z" fill="#47BCC9"/>
<path d="M22.8565 19.4479H18.2852L21.4506 14.8143H25.0741L22.8565 19.4479Z" fill="#47BCC9"/>
<path d="M31.9991 19.4479H27.4297L28.6958 14.8143H31.9991V19.4479Z" fill="#47BCC9"/>
<path d="M41.1435 19.4479H36.5722L35.6226 14.8143H39.2442L41.1435 19.4479Z" fill="#47BCC9"/>
<path d="M50.288 19.4479H45.7148L42.8659 14.8143H46.4876L50.288 19.4479Z" fill="#47BCC9"/>
<path d="M18.2852 19.4479H13.712L17.829 14.8143H21.4507L18.2852 19.4479Z" fill="#D6D6D6"/>
<path d="M27.4297 19.4479H22.8565L25.0742 14.8143H28.6958L27.4297 19.4479Z" fill="#D6D6D6"/>
<path d="M36.5722 19.4479H31.9991V14.8143H35.6226L36.5722 19.4479Z" fill="#D6D6D6"/>
<path d="M45.7149 19.4479H41.1436L39.2443 14.8143H42.866L45.7149 19.4479Z" fill="#D6D6D6"/>
<path d="M54.8593 19.4479H50.288L46.4876 14.8143H50.1092L54.8593 19.4479Z" fill="#D6D6D6"/>
<path d="M11.4273 23.6036C12.03 23.607 12.6093 23.3714 13.0381 22.9485C13.4669 22.5256 13.7099 21.9499 13.7139 21.3481H9.14258C9.14428 21.646 9.20474 21.9407 9.32048 22.2152C9.43622 22.4898 9.60499 22.7389 9.81714 22.9484C10.0293 23.1578 10.2807 23.3235 10.557 23.4359C10.8332 23.5483 11.129 23.6053 11.4273 23.6036Z" fill="#80D9D8"/>
<path d="M15.9986 23.6036C16.297 23.6055 16.593 23.5487 16.8695 23.4364C17.1459 23.3241 17.3976 23.1585 17.6099 22.949C17.8223 22.7396 17.9912 22.4904 18.1071 22.2157C18.2229 21.941 18.2834 21.6462 18.2851 21.3481H13.7138C13.7155 21.646 13.776 21.9407 13.8917 22.2152C14.0075 22.4898 14.1762 22.7389 14.3884 22.9484C14.6006 23.1578 14.8519 23.3235 15.1282 23.4359C15.4045 23.5483 15.7002 23.6053 15.9986 23.6036Z" fill="white"/>
<path d="M20.5717 23.6036C20.8701 23.6053 21.1658 23.5483 21.4421 23.4359C21.7183 23.3235 21.9697 23.1578 22.1819 22.9484C22.394 22.7389 22.5628 22.4898 22.6786 22.2152C22.7943 21.9407 22.8547 21.646 22.8565 21.3481H18.2852C18.2891 21.9499 18.5322 22.5256 18.9609 22.9485C19.3897 23.3714 19.9691 23.607 20.5717 23.6036Z" fill="#80D9D8"/>
<path d="M25.1375 23.6036C25.7402 23.607 26.3195 23.3714 26.7483 22.9485C27.1771 22.5256 27.4201 21.9499 27.4241 21.3481H22.8565C22.8604 21.949 23.1027 22.5237 23.5303 22.9465C23.9579 23.3693 24.5358 23.6055 25.1375 23.6036Z" fill="white"/>
<path d="M29.7144 23.6036C30.0127 23.6053 30.3084 23.5483 30.5847 23.4359C30.861 23.3235 31.1124 23.1578 31.3245 22.9484C31.5367 22.7389 31.7054 22.4898 31.8212 22.2152C31.9369 21.9407 31.9974 21.646 31.9991 21.3481H27.4297C27.4314 21.646 27.4918 21.9407 27.6076 22.2152C27.7233 22.4898 27.8921 22.7389 28.1042 22.9484C28.3164 23.1578 28.5678 23.3235 28.844 23.4359C29.1203 23.5483 29.4161 23.6053 29.7144 23.6036Z" fill="#80D9D8"/>
<path d="M34.2857 23.6036C34.8883 23.607 35.4677 23.3714 35.8965 22.9485C36.3252 22.5256 36.5683 21.9499 36.5722 21.3481H31.9991C32.003 21.9499 32.2461 22.5256 32.6749 22.9485C33.1036 23.3714 33.683 23.607 34.2857 23.6036Z" fill="white"/>
<path d="M38.8588 23.6036C39.1578 23.6063 39.4543 23.55 39.7314 23.438C40.0086 23.326 40.2608 23.1605 40.4738 22.951C40.6867 22.7415 40.8562 22.492 40.9724 22.217C41.0886 21.9419 41.1493 21.6467 41.151 21.3481H36.5722C36.5762 21.9499 36.8192 22.5256 37.248 22.9485C37.6768 23.3714 38.2562 23.607 38.8588 23.6036Z" fill="#80D9D8"/>
<path d="M43.4301 23.6036C44.0328 23.607 44.6122 23.3714 45.0409 22.9485C45.4697 22.5256 45.7128 21.9499 45.7167 21.3481H41.151C41.1549 21.9486 41.397 22.5231 41.8241 22.9458C42.2513 23.3685 42.8288 23.605 43.4301 23.6036Z" fill="white"/>
<path d="M48.0032 23.6036C48.3015 23.6053 48.5973 23.5483 48.8736 23.4359C49.1498 23.3235 49.4012 23.1578 49.6134 22.9484C49.8255 22.7389 49.9943 22.4898 50.11 22.2152C50.2258 21.9407 50.2862 21.646 50.2879 21.3481H45.7166C45.7184 21.6462 45.7789 21.941 45.8947 22.2157C46.0106 22.4904 46.1795 22.7396 46.3919 22.949C46.6042 23.1585 46.8558 23.3241 47.1323 23.4364C47.4088 23.5487 47.7047 23.6055 48.0032 23.6036Z" fill="#80D9D8"/>
<path d="M52.5727 23.6036C53.1753 23.607 53.7547 23.3714 54.1835 22.9485C54.6123 22.5256 54.8553 21.9499 54.8593 21.3481H50.288C50.2897 21.646 50.3501 21.9407 50.4659 22.2152C50.5816 22.4898 50.7504 22.7389 50.9625 22.9484C51.1747 23.1578 51.4261 23.3235 51.7023 23.4359C51.9786 23.5483 52.2744 23.6053 52.5727 23.6036Z" fill="white"/>
<path d="M13.7139 19.4479H9.14258V21.4002H13.7139V19.4479Z" fill="#80D9D8"/>
<path d="M22.8565 19.4479H18.2852V21.4002H22.8565V19.4479Z" fill="#80D9D8"/>
<path d="M31.9991 19.4479H27.4278V21.4002H31.9991V19.4479Z" fill="#80D9D8"/>
<path d="M41.1416 19.4479H36.5703V21.4002H41.1416V19.4479Z" fill="#80D9D8"/>
<path d="M50.2861 19.4479H45.7148V21.4002H50.2861V19.4479Z" fill="#80D9D8"/>
<path d="M18.2851 19.4479H13.7138V21.4002H18.2851V19.4479Z" fill="white"/>
<path d="M4.5713 19.4479H0L6.97518 14.8143H10.5968L4.5713 19.4479Z" fill="#47BCC9"/>
<path d="M9.14261 19.4479H4.57132L10.5969 14.8143H14.2185L9.14261 19.4479Z" fill="#D6D6D6"/>
<path d="M2.28472 23.6036C2.88738 23.607 3.46676 23.3714 3.89553 22.9485C4.32429 22.5256 4.56736 21.9499 4.5713 21.3481H0C0.00170678 21.646 0.0621572 21.9407 0.1779 22.2152C0.293642 22.4898 0.46241 22.7389 0.674566 22.9484C0.886723 23.1578 1.13811 23.3235 1.41438 23.4359C1.69065 23.5483 1.98639 23.6053 2.28472 23.6036Z" fill="#80D9D8"/>
<path d="M6.8579 23.6036C7.15622 23.6053 7.45196 23.5483 7.72823 23.4359C8.0045 23.3235 8.25589 23.1578 8.46805 22.9484C8.68021 22.7389 8.84897 22.4898 8.96472 22.2152C9.08046 21.9407 9.14091 21.646 9.14261 21.3481H4.57132C4.57526 21.9499 4.81832 22.5256 5.24709 22.9485C5.67585 23.3714 6.25523 23.607 6.8579 23.6036Z" fill="white"/>
<path d="M4.5713 19.4479H0V21.4002H4.5713V19.4479Z" fill="#80D9D8"/>
<path d="M9.14261 19.4479H4.57132V21.4002H9.14261V19.4479Z" fill="white"/>
<path d="M27.4278 19.4479H22.8565V21.4002H27.4278V19.4479Z" fill="white"/>
<path d="M36.5704 19.4479H31.9991V21.4002H36.5704V19.4479Z" fill="white"/>
<path d="M45.7148 19.4479H41.1417V21.4002H45.7148V19.4479Z" fill="white"/>
<path d="M54.8575 19.4479H50.2862V21.4002H54.8575V19.4479Z" fill="white"/>
<path d="M59.4287 19.4479H54.8574L50.1092 14.8143H53.7327L59.4287 19.4479Z" fill="#47BCC9"/>
<path d="M64 19.4479H59.4287L53.7309 14.8143H57.3544L64 19.4479Z" fill="#D6D6D6"/>
<path d="M57.1421 23.6036C57.7448 23.607 58.3242 23.3714 58.753 22.9485C59.1817 22.5256 59.4248 21.9499 59.4287 21.3481H54.8574C54.8591 21.646 54.9196 21.9407 55.0353 22.2152C55.1511 22.4898 55.3198 22.7389 55.532 22.9484C55.7441 23.1578 55.9955 23.3235 56.2718 23.4359C56.5481 23.5483 56.8438 23.6053 57.1421 23.6036Z" fill="#80D9D8"/>
<path d="M61.7153 23.6036C62.0136 23.6053 62.3093 23.5483 62.5856 23.4359C62.8619 23.3235 63.1133 23.1578 63.3254 22.9484C63.5376 22.7389 63.7063 22.4898 63.8221 22.2152C63.9378 21.9407 63.9983 21.646 64 21.3481H59.4287C59.4326 21.9499 59.6757 22.5256 60.1044 22.9485C60.5332 23.3714 61.1126 23.607 61.7153 23.6036Z" fill="white"/>
<path d="M59.4268 19.4479H54.8555V21.4002H59.4268V19.4479Z" fill="#80D9D8"/>
<path d="M63.9981 19.4479H59.4268V21.4002H63.9981V19.4479Z" fill="white"/>
</g>
<defs>
<clipPath id="clip0_267_1185">
<rect width="64" height="43.3548" fill="white" transform="translate(0 0.822571)"/>
</clipPath>
</defs>
</svg>
