<svg width="46" height="46" viewBox="0 0 46 46" fill="none" xmlns="http://www.w3.org/2000/svg">
<g clip-path="url(#clip0_269_2762)">
<path opacity="0.992" fill-rule="evenodd" clip-rule="evenodd" d="M20.9785 -0.0449219C22.2963 -0.0449219 23.6139 -0.0449219 24.9316 -0.0449219C28.0936 0.266795 31.0884 1.16523 33.916 2.65039C33.7883 2.87584 33.6386 3.08549 33.4668 3.2793C33.0964 3.60088 32.7669 3.96026 32.4785 4.35742C32.1159 4.71989 31.7865 5.10921 31.4902 5.52539C31.1009 5.85482 30.7416 6.2142 30.4121 6.60352C29.9641 6.93189 29.5448 7.29126 29.1543 7.68164C28.7571 7.97003 28.3977 8.29945 28.0762 8.66992C27.6305 8.96571 27.2413 9.32506 26.9082 9.74805C26.5098 10.0265 26.2104 10.3858 26.0098 10.8262C25.5913 11.45 25.5464 12.1088 25.875 12.8027C26.2684 13.4508 26.7925 13.9598 27.4473 14.3301C28.3618 14.9647 29.38 15.3541 30.502 15.498C30.5918 15.498 30.6816 15.498 30.7715 15.498C32.018 15.6845 33.2459 15.5647 34.4551 15.1387C35.0336 15.0291 35.5726 14.8194 36.0723 14.5098C36.5266 14.2533 36.9458 13.9538 37.3301 13.6113C37.7793 13.3418 38.1387 12.9824 38.4082 12.5332C38.7775 12.1333 39.077 11.6841 39.3066 11.1855C39.6373 10.7329 39.847 10.2238 39.9355 9.6582C40.0955 9.0832 40.2452 8.51419 40.3848 7.95117C43.636 11.6818 45.4927 16.0243 45.9551 20.9785C45.9551 22.2963 45.9551 23.6139 45.9551 24.9316C44.8336 33.9434 40.1618 40.3672 31.9395 44.2031C29.6766 45.1282 27.3406 45.7122 24.9316 45.9551C23.7637 45.9551 22.5957 45.9551 21.4277 45.9551C23.9378 43.0309 26.3186 40.0063 28.5703 36.8809C30.4352 34.9709 32.3369 33.1141 34.2754 31.3105C35.1406 30.5505 35.9941 29.7718 36.8359 28.9746C36.8959 28.7949 36.8959 28.6152 36.8359 28.4355C36.6228 28.2376 36.4281 28.0279 36.252 27.8066C36.8209 27.8066 37.39 27.8066 37.959 27.8066C38.4837 27.8404 38.9927 27.7806 39.4863 27.627C40.1699 27.5019 40.634 27.1126 40.8789 26.459C41.0376 25.6817 41.0526 24.9032 40.9238 24.123C40.6662 23.0689 40.2169 22.1105 39.5762 21.248C39.5762 21.1881 39.5463 21.1582 39.4863 21.1582C39.1087 20.552 38.6296 20.043 38.0488 19.6309C37.5749 19.1835 37.0358 18.8242 36.4316 18.5527C35.9594 18.2722 35.4503 18.0626 34.9043 17.9238C34.4025 17.7974 33.8935 17.7076 33.377 17.6543C32.8678 17.5345 32.3588 17.5345 31.8496 17.6543C31.252 17.6885 30.6829 17.8084 30.1426 18.0137C29.6653 18.1228 29.2161 18.3025 28.7949 18.5527C28.3452 18.7774 27.9259 19.047 27.5371 19.3613C27.4 18.9531 27.1305 18.6685 26.7285 18.5078C26.1869 18.4502 25.6479 18.4652 25.1113 18.5527C25.1113 18.4928 25.1113 18.433 25.1113 18.373C25.0991 17.6913 25.0093 17.0324 24.8418 16.3965C24.7247 15.6854 24.4852 15.0265 24.123 14.4199C23.6371 13.3049 22.8884 12.4064 21.877 11.7246C21.0496 10.9495 20.0913 10.7099 19.002 11.0059C18.9713 10.7349 18.8666 10.4954 18.6875 10.2871C18.3131 9.91273 17.9388 9.53844 17.5645 9.16406C17.3672 9.04071 17.1576 9.01079 16.9355 9.07422C16.1084 9.94606 15.2999 10.8295 14.5098 11.7246C12.7662 13.6032 10.9693 15.4449 9.11914 17.25C5.98007 19.5533 2.92538 21.9641 -0.0449219 24.4824C-0.0449219 23.3145 -0.0449219 22.1465 -0.0449219 20.9785C1.07652 11.9667 5.74839 5.54288 13.9707 1.70703C16.2336 0.781939 18.5695 0.197955 20.9785 -0.0449219Z" fill="#F9DD4F"/>
<ellipse cx="23.4382" cy="22.4633" rx="18.972" ry="18.5764" transform="rotate(-0.274135 23.4382 22.4633)" fill="#F1F1A6"/>
<path fill-rule="evenodd" clip-rule="evenodd" d="M39.2168 2.6504C38.9048 2.58369 38.5903 2.5238 38.2734 2.47071C37.9442 2.51565 37.6297 2.60549 37.3301 2.74024C36.7611 2.23112 36.222 1.69206 35.7129 1.12305C36.6071 0.693809 37.4456 0.798626 38.2285 1.43751C38.6451 1.77838 38.9745 2.18268 39.2168 2.6504Z" fill="#FCB30D"/>
<path fill-rule="evenodd" clip-rule="evenodd" d="M35.7129 1.12305C36.222 1.69205 36.7611 2.23112 37.3301 2.74023C38.2884 3.75846 39.2767 4.74674 40.2949 5.70508C40.384 6.40729 40.4141 7.12604 40.3848 7.86133C40.3184 7.8731 40.2584 7.85812 40.2051 7.81641C38.8394 6.43564 37.4617 5.07301 36.0723 3.72852C35.5631 3.15951 35.0241 2.62045 34.4551 2.11133C34.6836 1.81666 34.9531 1.5621 35.2637 1.34766C35.4054 1.24932 35.5552 1.17446 35.7129 1.12305Z" fill="#FC9302"/>
<path fill-rule="evenodd" clip-rule="evenodd" d="M34.4551 2.11133C35.0241 2.62045 35.5631 3.15951 36.0723 3.72852C35.8065 4.1441 35.4771 4.50347 35.084 4.80664C34.5449 4.29752 34.0059 3.78841 33.4668 3.2793C33.6386 3.08549 33.7883 2.87584 33.916 2.65039C34.0658 2.44076 34.2455 2.26107 34.4551 2.11133Z" fill="#FBB20D"/>
<path opacity="0.953" fill-rule="evenodd" clip-rule="evenodd" d="M39.2168 2.65039C39.8412 3.56472 40.2006 4.58295 40.2949 5.70508C39.2767 4.74674 38.2884 3.75846 37.3301 2.74023C37.6297 2.60549 37.9442 2.51564 38.2734 2.4707C38.5903 2.52379 38.9048 2.58368 39.2168 2.65039Z" fill="#FDBE42"/>
<path fill-rule="evenodd" clip-rule="evenodd" d="M33.4668 3.2793C34.0059 3.78841 34.5449 4.29752 35.084 4.80664C36.6713 6.45377 38.2884 8.07096 39.9355 9.6582C39.847 10.2238 39.6373 10.7329 39.3066 11.1855C37.5697 9.47852 35.8327 7.77148 34.0957 6.06445C33.5566 5.49545 33.0176 4.92643 32.4785 4.35742C32.7669 3.96026 33.0964 3.60088 33.4668 3.2793Z" fill="#FB9303"/>
<path fill-rule="evenodd" clip-rule="evenodd" d="M36.0723 3.72852C37.4617 5.07301 38.8394 6.43564 40.2051 7.81641C40.2584 7.85812 40.3184 7.8731 40.3848 7.86133C40.3848 7.89127 40.3848 7.92123 40.3848 7.95117C40.2452 8.51419 40.0955 9.0832 39.9355 9.6582C38.2884 8.07096 36.6713 6.45377 35.084 4.80664C35.4771 4.50347 35.8065 4.1441 36.0723 3.72852Z" fill="#FCBE42"/>
<path fill-rule="evenodd" clip-rule="evenodd" d="M32.4785 4.35742C33.0176 4.92643 33.5566 5.49545 34.0957 6.06445C33.7689 6.4215 33.4394 6.78088 33.1074 7.14258C32.5384 6.63346 31.9994 6.0944 31.4902 5.52539C31.7865 5.10921 32.1159 4.71989 32.4785 4.35742Z" fill="#FBB30F"/>
<path fill-rule="evenodd" clip-rule="evenodd" d="M31.4902 5.52539C31.9994 6.0944 32.5384 6.63346 33.1074 7.14258C34.8744 8.93945 36.6412 10.7363 38.4082 12.5332C38.1387 12.9824 37.7793 13.3418 37.3301 13.6113C35.5931 11.8145 33.8262 10.0475 32.0293 8.31055C31.4902 7.74154 30.9512 7.17252 30.4121 6.60352C30.7416 6.2142 31.1009 5.85482 31.4902 5.52539Z" fill="#FB9303"/>
<path fill-rule="evenodd" clip-rule="evenodd" d="M34.0957 6.06445C35.8327 7.77148 37.5697 9.47852 39.3066 11.1855C39.077 11.6841 38.7775 12.1333 38.4082 12.5332C36.6412 10.7363 34.8744 8.93945 33.1074 7.14258C33.4394 6.78088 33.7689 6.4215 34.0957 6.06445Z" fill="#FCBE42"/>
<path fill-rule="evenodd" clip-rule="evenodd" d="M30.4121 6.60352C30.9512 7.17252 31.4902 7.74154 32.0293 8.31055C31.6416 8.60787 31.2523 8.90734 30.8613 9.20898C30.3173 8.66457 29.7483 8.15545 29.1543 7.68164C29.5448 7.29126 29.9641 6.93189 30.4121 6.60352Z" fill="#FBB20E"/>
<path fill-rule="evenodd" clip-rule="evenodd" d="M29.1543 7.68164C29.7483 8.15545 30.3173 8.66457 30.8613 9.20898C32.5983 10.9759 34.3353 12.7428 36.0723 14.5098C35.5726 14.8194 35.0336 15.0291 34.4551 15.1387C32.8678 13.4916 31.2506 11.8744 29.6035 10.2871C29.0944 9.74805 28.5853 9.20898 28.0762 8.66992C28.3977 8.29945 28.7571 7.97003 29.1543 7.68164Z" fill="#FB9405"/>
<path fill-rule="evenodd" clip-rule="evenodd" d="M32.0293 8.31055C33.8262 10.0475 35.5931 11.8145 37.3301 13.6113C36.9458 13.9538 36.5266 14.2533 36.0723 14.5098C34.3353 12.7428 32.5983 10.9759 30.8613 9.20898C31.2523 8.90734 31.6416 8.60787 32.0293 8.31055Z" fill="#FCBE42"/>
<path fill-rule="evenodd" clip-rule="evenodd" d="M28.0762 8.66992C28.5853 9.20898 29.0944 9.74805 29.6035 10.2871C29.2671 10.653 28.9376 11.0123 28.6152 11.3652C28.0463 10.8262 27.4772 10.2871 26.9082 9.74805C27.2413 9.32506 27.6305 8.96571 28.0762 8.66992Z" fill="#FBB20D"/>
<path fill-rule="evenodd" clip-rule="evenodd" d="M19.002 11.0059C18.7422 11.1217 18.5325 11.3014 18.373 11.5449C18.0061 11.9432 17.7066 12.3924 17.4746 12.8926C17.2457 13.2906 17.066 13.7099 16.9355 14.1504C16.7099 14.5427 16.5302 14.962 16.3965 15.4082C16.3095 15.2189 16.2795 15.0092 16.3066 14.7793C16.5485 14.1804 16.5335 13.5814 16.2617 12.9824C15.8675 12.4383 15.3883 11.9891 14.8242 11.6348C14.722 11.6787 14.6171 11.7086 14.5098 11.7246C15.2999 10.8295 16.1084 9.94607 16.9355 9.07422C17.1576 9.01079 17.3672 9.04071 17.5645 9.16407C17.9388 9.53845 18.3131 9.91273 18.6875 10.2871C18.8666 10.4954 18.9713 10.7349 19.002 11.0059Z" fill="#3899AA"/>
<path fill-rule="evenodd" clip-rule="evenodd" d="M26.9082 9.74805C27.4772 10.2871 28.0463 10.8262 28.6152 11.3652C29.9447 12.7398 31.2924 14.1023 32.6582 15.4531C32.03 15.498 31.4011 15.513 30.7715 15.498C30.6816 15.498 30.5918 15.498 30.502 15.498C29.5436 14.4798 28.5553 13.4916 27.5371 12.5332C26.9927 11.9892 26.4836 11.4201 26.0098 10.8262C26.2104 10.3858 26.5098 10.0265 26.9082 9.74805Z" fill="#FB9302"/>
<path fill-rule="evenodd" clip-rule="evenodd" d="M29.6035 10.2871C31.2506 11.8744 32.8678 13.4916 34.4551 15.1387C33.2459 15.5647 32.018 15.6845 30.7715 15.498C31.4011 15.513 32.03 15.498 32.6582 15.4531C31.2924 14.1023 29.9447 12.7398 28.6152 11.3652C28.9376 11.0123 29.2671 10.653 29.6035 10.2871Z" fill="#FCBE42"/>
<path fill-rule="evenodd" clip-rule="evenodd" d="M21.877 11.7246C21.359 11.8945 20.8799 12.164 20.4395 12.5332C19.7393 12.2281 19.0506 11.8986 18.373 11.5449C18.5325 11.3014 18.7422 11.1217 19.002 11.0059C20.0913 10.7099 21.0496 10.9495 21.877 11.7246Z" fill="#FAB312"/>
<path fill-rule="evenodd" clip-rule="evenodd" d="M26.0098 10.8262C26.4836 11.4201 26.9926 11.9892 27.5371 12.5332C27.3332 13.1197 27.3031 13.7186 27.4473 14.3301C26.7925 13.9598 26.2684 13.4508 25.875 12.8027C25.5463 12.1088 25.5913 11.45 26.0098 10.8262Z" fill="#FAB313"/>
<path fill-rule="evenodd" clip-rule="evenodd" d="M18.373 11.5449C19.0506 11.8986 19.7393 12.2281 20.4395 12.5332C21.6502 13.1836 22.8781 13.8125 24.123 14.4199C24.4852 15.0265 24.7247 15.6854 24.8418 16.3965C24.8364 16.4453 24.8065 16.4752 24.752 16.4863C23.0119 15.6126 21.275 14.7441 19.541 13.8809C18.8903 13.4807 18.2014 13.1512 17.4746 12.8926C17.7066 12.3924 18.0061 11.9432 18.373 11.5449Z" fill="#FB9304"/>
<path fill-rule="evenodd" clip-rule="evenodd" d="M16.3066 14.7793C16.3184 14.7129 16.3034 14.653 16.2617 14.5996C15.8094 15.0218 15.3902 15.471 15.0039 15.9473C14.9305 16.2585 14.9605 16.558 15.0938 16.8457C19.8555 21.6074 24.6172 26.3691 29.3789 31.1309C29.8443 32.1907 29.4999 32.6849 28.3457 32.6133C23.4666 27.8241 18.6151 23.0025 13.791 18.1484C12.8077 17.8736 12.3734 18.2479 12.4883 19.2715C17.2475 24.1206 22.0392 28.9422 26.8633 33.7363C27.2926 34.5246 27.068 35.0038 26.1895 35.1738C25.9977 35.1725 25.818 35.1276 25.6504 35.0391C20.8287 30.2174 16.0072 25.3959 11.1855 20.5742C10.8412 20.3269 10.4818 20.297 10.1074 20.4844C6.78505 22.9231 3.61057 25.5435 0.583984 28.3457C0.281682 27.2236 0.0720466 26.0856 -0.0449219 24.9316C-0.0449219 24.7819 -0.0449219 24.6322 -0.0449219 24.4824C2.92538 21.9641 5.98007 19.5533 9.11914 17.25C10.9693 15.4449 12.7662 13.6032 14.5098 11.7246C14.6171 11.7086 14.722 11.6787 14.8242 11.6348C15.3883 11.9891 15.8675 12.4383 16.2617 12.9824C16.5335 13.5814 16.5485 14.1804 16.3066 14.7793Z" fill="#44B8CB"/>
<path fill-rule="evenodd" clip-rule="evenodd" d="M21.877 11.7246C22.8884 12.4064 23.6371 13.3049 24.123 14.4199C22.8781 13.8125 21.6502 13.1836 20.4395 12.5332C20.8799 12.164 21.359 11.8945 21.877 11.7246Z" fill="#FCBE43"/>
<path fill-rule="evenodd" clip-rule="evenodd" d="M27.5371 12.5332C28.5553 13.4916 29.5436 14.4798 30.5019 15.498C29.38 15.3541 28.3618 14.9647 27.4473 14.3301C27.3031 13.7186 27.3332 13.1197 27.5371 12.5332Z" fill="#FBBF45"/>
<path fill-rule="evenodd" clip-rule="evenodd" d="M17.4746 12.8926C18.2014 13.1512 18.8903 13.4807 19.541 13.8809C19.3364 14.3199 19.1568 14.7691 19.002 15.2285C18.27 14.9375 17.5812 14.5781 16.9355 14.1504C17.066 13.7099 17.2457 13.2906 17.4746 12.8926Z" fill="#FBB20C"/>
<path fill-rule="evenodd" clip-rule="evenodd" d="M19.541 13.8809C21.275 14.7441 23.0119 15.6126 24.752 16.4863C24.8065 16.4752 24.8364 16.4453 24.8418 16.3965C25.0093 17.0324 25.0991 17.6913 25.1113 18.373C23.0682 17.3237 21.0317 16.2756 19.002 15.2285C19.1568 14.7691 19.3364 14.3199 19.541 13.8809Z" fill="#FCBE42"/>
<path fill-rule="evenodd" clip-rule="evenodd" d="M16.9355 14.1504C17.5812 14.5781 18.27 14.9375 19.002 15.2285C21.0317 16.2756 23.0682 17.3237 25.1113 18.373C25.1113 18.433 25.1113 18.4928 25.1113 18.5527C25.1422 19.0557 25.0824 19.5349 24.9316 19.9902C23.8511 19.45 22.773 18.9109 21.6973 18.373C21.4984 18.2587 21.2888 18.1688 21.0684 18.1035C20.4979 17.7584 19.899 17.4589 19.2715 17.2051C19.5184 16.0148 19.0391 15.356 17.834 15.2285C17.3566 15.3081 16.8774 15.368 16.3965 15.4082C16.5302 14.9619 16.7099 14.5426 16.9355 14.1504Z" fill="#FB9304"/>
<path fill-rule="evenodd" clip-rule="evenodd" d="M16.3066 14.7793C16.2795 15.0092 16.3095 15.2189 16.3965 15.4082C16.8774 15.368 17.3566 15.3081 17.834 15.2285C19.0391 15.356 19.5184 16.0148 19.2715 17.2051C19.1942 17.5585 19.1643 17.9179 19.1816 18.2832C19.8052 18.1728 20.4342 18.1129 21.0684 18.1035C21.2888 18.1688 21.4984 18.2587 21.6973 18.373C22.2102 18.8745 22.3599 19.4735 22.1465 20.1699C22.0583 20.481 22.0283 20.8104 22.0566 21.1582C22.5059 21.0983 22.9551 21.0384 23.4043 20.9785C23.8829 20.9103 24.3022 21.0301 24.6621 21.3379C24.863 21.5832 25.0127 21.8527 25.1113 22.1465C25.0046 22.7704 24.9447 23.3993 24.9316 24.0332C25.1996 23.9916 25.4691 23.9617 25.7402 23.9434C26.2616 23.8057 26.7707 23.8356 27.2676 24.0332C27.7885 24.3659 27.9982 24.845 27.8965 25.4707C27.8142 25.9191 27.7693 26.3683 27.7617 26.8184C27.8269 26.8686 27.9017 26.8985 27.9863 26.9082C28.2715 26.8641 28.541 26.8043 28.7949 26.7285C29.3381 26.6658 29.8473 26.7556 30.3223 26.998C30.4951 27.1953 30.6449 27.4049 30.7715 27.627C30.776 28.3223 30.716 29.011 30.5918 29.6934C31.3101 29.6314 32.0288 29.6164 32.748 29.6484C33.2955 30.0158 33.7896 30.45 34.2305 30.9512C34.2745 31.0673 34.2895 31.1872 34.2754 31.3105C32.3369 33.1141 30.4352 34.9709 28.5703 36.8809C26.3186 40.0063 23.9378 43.0309 21.4277 45.9551C21.278 45.9551 21.1283 45.9551 20.9785 45.9551C18.5503 45.7224 16.2144 45.1234 13.9707 44.1582C13.8721 44.0776 13.8721 44.0028 13.9707 43.9336C16.265 43.556 17.5977 42.2233 17.9687 39.9355C18.1405 37.8301 17.6614 35.8834 16.5312 34.0957C14.6262 31.0534 11.9459 29.0319 8.49023 28.0312C7.41091 27.8593 6.33279 27.8593 5.25586 28.0312C3.349 28.6505 2.2559 29.9532 1.97656 31.9395C1.90741 32.0381 1.83254 32.0381 1.75195 31.9395C1.22117 30.7961 0.831847 29.5982 0.583984 28.3457C3.61057 25.5435 6.78505 22.9231 10.1074 20.4844C10.4818 20.297 10.8412 20.3269 11.1855 20.5742C16.0072 25.3959 20.8287 30.2174 25.6504 35.0391C25.818 35.1276 25.9977 35.1725 26.1895 35.1738C27.068 35.0038 27.2926 34.5246 26.8633 33.7363C22.0392 28.9422 17.2475 24.1206 12.4883 19.2715C12.3734 18.2479 12.8077 17.8736 13.791 18.1484C18.6151 23.0025 23.4666 27.8241 28.3457 32.6133C29.4999 32.6849 29.8443 32.1907 29.3789 31.1309C24.6172 26.3691 19.8555 21.6074 15.0937 16.8457C14.9605 16.558 14.9305 16.2585 15.0039 15.9473C15.3902 15.471 15.8094 15.0218 16.2617 14.5996C16.3034 14.653 16.3184 14.7129 16.3066 14.7793Z" fill="#4BCCE2"/>
<path fill-rule="evenodd" clip-rule="evenodd" d="M19.2715 17.2051C19.899 17.4589 20.498 17.7584 21.0684 18.1035C20.4342 18.1129 19.8053 18.1728 19.1817 18.2832C19.1643 17.9179 19.1942 17.5585 19.2715 17.2051Z" fill="#FCBC42"/>
<path fill-rule="evenodd" clip-rule="evenodd" d="M31.8496 17.6543C31.8496 20.1998 31.8496 22.7455 31.8496 25.291C31.3405 25.291 30.8314 25.291 30.3223 25.291C30.3814 22.8334 30.3215 20.4076 30.1426 18.0137C30.6829 17.8084 31.252 17.6885 31.8496 17.6543Z" fill="#FCBE42"/>
<path fill-rule="evenodd" clip-rule="evenodd" d="M33.377 17.6543C33.377 20.1998 33.377 22.7455 33.377 25.291C33.377 26.0397 33.377 26.7885 33.377 27.5371C33.7247 27.5088 34.0542 27.5387 34.3652 27.627C33.3157 27.5443 32.2675 27.5443 31.2207 27.627C31.41 27.54 31.6197 27.51 31.8496 27.5371C31.8496 26.7885 31.8496 26.0397 31.8496 25.291C31.8496 22.7455 31.8496 20.1998 31.8496 17.6543C32.3588 17.5345 32.8678 17.5345 33.377 17.6543Z" fill="#FB9305"/>
<path fill-rule="evenodd" clip-rule="evenodd" d="M33.377 17.6543C33.8935 17.7076 34.4025 17.7974 34.9043 17.9238C34.9043 20.3795 34.9043 22.8353 34.9043 25.291C34.3952 25.291 33.8861 25.291 33.377 25.291C33.377 22.7455 33.377 20.1998 33.377 17.6543Z" fill="#FCBE42"/>
<path fill-rule="evenodd" clip-rule="evenodd" d="M30.1426 18.0137C30.3215 20.4076 30.3814 22.8334 30.3223 25.291C30.3223 25.86 30.3223 26.4291 30.3223 26.998C29.8473 26.7556 29.3381 26.6658 28.7949 26.7285C28.7949 26.3092 28.7949 25.89 28.7949 25.4707C28.7949 23.1647 28.7949 20.8588 28.7949 18.5527C29.2161 18.3025 29.6653 18.1228 30.1426 18.0137Z" fill="#FB9302"/>
<path fill-rule="evenodd" clip-rule="evenodd" d="M34.9043 17.9238C35.4503 18.0626 35.9594 18.2722 36.4316 18.5527C36.4316 20.8588 36.4316 23.1647 36.4316 25.4707C36.4316 26.2194 36.4316 26.9681 36.4316 27.7168C36.3418 27.7168 36.252 27.7168 36.1621 27.7168C35.7252 27.7455 35.3059 27.7155 34.9043 27.627C34.9043 26.8483 34.9043 26.0697 34.9043 25.291C34.9043 22.8353 34.9043 20.3795 34.9043 17.9238Z" fill="#FB9303"/>
<path fill-rule="evenodd" clip-rule="evenodd" d="M27.5371 19.3613C27.4473 19.4213 27.3574 19.4811 27.2676 19.541C26.6654 20.0533 26.1263 20.6224 25.6504 21.248C25.4349 21.524 25.2553 21.8235 25.1113 22.1465C25.0127 21.8527 24.863 21.5832 24.6621 21.3379C24.7634 20.8917 24.8532 20.4425 24.9316 19.9902C25.0824 19.5349 25.1422 19.0557 25.1113 18.5527C25.6479 18.4652 26.1869 18.4502 26.7285 18.5078C27.1305 18.6685 27.4 18.9531 27.5371 19.3613Z" fill="#3899AA"/>
<path fill-rule="evenodd" clip-rule="evenodd" d="M21.6973 18.373C22.773 18.9109 23.8511 19.45 24.9316 19.9902C24.8532 20.4425 24.7634 20.8917 24.6621 21.3379C24.3022 21.0301 23.8829 20.9103 23.4043 20.9785C23.0349 20.7486 22.6455 20.539 22.2363 20.3496C22.1646 20.3086 22.1347 20.2486 22.1465 20.1699C22.3599 19.4735 22.2102 18.8745 21.6973 18.373Z" fill="#FCBD42"/>
<path fill-rule="evenodd" clip-rule="evenodd" d="M28.7949 18.5527C28.7949 20.8588 28.7949 23.1647 28.7949 25.4707C28.4955 25.4707 28.1959 25.4707 27.8965 25.4707C27.9982 24.845 27.7885 24.3659 27.2676 24.0332C27.2676 22.5358 27.2676 21.0384 27.2676 19.541C27.3574 19.4811 27.4473 19.4213 27.5371 19.3613C27.9259 19.047 28.3452 18.7774 28.7949 18.5527Z" fill="#FCBE43"/>
<path fill-rule="evenodd" clip-rule="evenodd" d="M36.4316 18.5527C37.0358 18.8242 37.5749 19.1835 38.0488 19.6309C37.9593 21.562 37.9292 23.5085 37.959 25.4707C37.4498 25.4707 36.9408 25.4707 36.4316 25.4707C36.4316 23.1647 36.4316 20.8588 36.4316 18.5527Z" fill="#FCBE42"/>
<path fill-rule="evenodd" clip-rule="evenodd" d="M27.2676 19.541C27.2676 21.0384 27.2676 22.5358 27.2676 24.0332C26.7707 23.8356 26.2616 23.8057 25.7402 23.9434C25.7696 23.0287 25.7397 22.1302 25.6504 21.248C26.1263 20.6224 26.6654 20.0533 27.2676 19.541Z" fill="#FB9203"/>
<path fill-rule="evenodd" clip-rule="evenodd" d="M38.0488 19.6309C38.6296 20.043 39.1087 20.552 39.4863 21.1582C39.4863 23.3145 39.4863 25.4707 39.4863 27.627C38.9927 27.7806 38.4837 27.8404 37.959 27.8066C37.959 27.028 37.959 26.2494 37.959 25.4707C37.9292 23.5085 37.9592 21.562 38.0488 19.6309Z" fill="#FB9404"/>
<path fill-rule="evenodd" clip-rule="evenodd" d="M22.1465 20.1699C22.1347 20.2486 22.1646 20.3086 22.2363 20.3496C22.6455 20.539 23.0349 20.7486 23.4043 20.9785C22.9551 21.0384 22.5059 21.0983 22.0566 21.1582C22.0283 20.8104 22.0583 20.481 22.1465 20.1699Z" fill="#FB9007"/>
<path fill-rule="evenodd" clip-rule="evenodd" d="M25.6504 21.248C25.7397 22.1302 25.7696 23.0287 25.7402 23.9434C25.4691 23.9617 25.1996 23.9916 24.9316 24.0332C24.9447 23.3993 25.0046 22.7704 25.1113 22.1465C25.2553 21.8235 25.4349 21.524 25.6504 21.248Z" fill="#FCBC43"/>
<path fill-rule="evenodd" clip-rule="evenodd" d="M39.5761 21.248C40.2169 22.1105 40.6661 23.0689 40.9238 24.123C40.6828 24.6931 40.2635 25.0824 39.666 25.291C39.5762 23.9447 39.5462 22.5971 39.5761 21.248Z" fill="#FBBF44"/>
<path fill-rule="evenodd" clip-rule="evenodd" d="M39.4863 21.1582C39.5463 21.1582 39.5762 21.1881 39.5762 21.248C39.5463 22.5971 39.5763 23.9447 39.666 25.291C40.2636 25.0824 40.6829 24.6931 40.9238 24.123C41.0526 24.9032 41.0376 25.6817 40.8789 26.459C40.634 27.1126 40.1699 27.5019 39.4863 27.627C39.4863 25.4707 39.4863 23.3145 39.4863 21.1582Z" fill="#FBB214"/>
<path fill-rule="evenodd" clip-rule="evenodd" d="M30.3223 25.291C30.8314 25.291 31.3405 25.291 31.8496 25.291C31.8496 26.0397 31.8496 26.7884 31.8496 27.5371C31.6197 27.51 31.41 27.54 31.2207 27.627C31.0709 27.627 30.9213 27.627 30.7715 27.627C30.6449 27.4049 30.4951 27.1953 30.3223 26.998C30.3223 26.4291 30.3223 25.86 30.3223 25.291Z" fill="#FBB20C"/>
<path fill-rule="evenodd" clip-rule="evenodd" d="M33.377 25.291C33.8861 25.291 34.3952 25.291 34.9043 25.291C34.9043 26.0697 34.9043 26.8483 34.9043 27.627C34.7246 27.627 34.5449 27.627 34.3652 27.627C34.0542 27.5387 33.7247 27.5088 33.377 27.5371C33.377 26.7884 33.377 26.0397 33.377 25.291Z" fill="#FBB20B"/>
<path fill-rule="evenodd" clip-rule="evenodd" d="M27.8965 25.4707C28.1959 25.4707 28.4955 25.4707 28.7949 25.4707C28.7949 25.89 28.7949 26.3092 28.7949 26.7285C28.541 26.8043 28.2715 26.8641 27.9863 26.9082C27.9017 26.8985 27.8269 26.8686 27.7617 26.8184C27.7693 26.3683 27.8142 25.9191 27.8965 25.4707Z" fill="#FBAE10"/>
<path fill-rule="evenodd" clip-rule="evenodd" d="M36.4316 25.4707C36.9408 25.4707 37.4498 25.4707 37.959 25.4707C37.959 26.2494 37.959 27.028 37.959 27.8066C37.39 27.8066 36.8209 27.8066 36.252 27.8066C36.192 27.8066 36.1621 27.7767 36.1621 27.7168C36.252 27.7168 36.3418 27.7168 36.4316 27.7168C36.4316 26.9681 36.4316 26.2194 36.4316 25.4707Z" fill="#FBB30F"/>
<path fill-rule="evenodd" clip-rule="evenodd" d="M34.3652 27.627C34.5449 27.627 34.7246 27.627 34.9043 27.627C35.3059 27.7156 35.7252 27.7455 36.1621 27.7168C36.1621 27.7767 36.192 27.8067 36.252 27.8067C36.4281 28.0279 36.6228 28.2376 36.8359 28.4356C36.8959 28.6152 36.8959 28.7949 36.8359 28.9746C35.9941 29.7718 35.1406 30.5505 34.2754 31.3106C34.2895 31.1872 34.2745 31.0674 34.2305 30.9512C33.7896 30.45 33.2955 30.0158 32.748 29.6484C32.0288 29.6164 31.3101 29.6314 30.5918 29.6934C30.7161 29.011 30.776 28.3223 30.7715 27.627C30.9213 27.627 31.0709 27.627 31.2207 27.627C32.2675 27.5443 33.3157 27.5443 34.3652 27.627Z" fill="#3899AA"/>
<path fill-rule="evenodd" clip-rule="evenodd" d="M13.9707 44.1582C9.06739 42.0555 5.30893 38.6714 2.69531 34.0059C2.33057 33.3365 2.01612 32.6477 1.75195 31.9395C1.83254 32.0381 1.90741 32.0381 1.97656 31.9395C2.2559 29.9532 3.349 28.6505 5.25586 28.0313C6.33279 27.8593 7.41091 27.8593 8.49023 28.0313C11.9459 29.0319 14.6262 31.0534 16.5312 34.0957C17.6614 35.8834 18.1405 37.8301 17.9688 39.9356C17.5977 42.2233 16.265 43.556 13.9707 43.9336C13.8721 44.0028 13.8721 44.0776 13.9707 44.1582Z" fill="#44B8CB"/>
</g>
<defs>
<clipPath id="clip0_269_2762">
<rect width="46" height="46" fill="white"/>
</clipPath>
</defs>
</svg>
