<svg width="289" height="127" viewBox="0 0 289 127" fill="none" xmlns="http://www.w3.org/2000/svg">
<g clip-path="url(#clip0_397_1275)">
<rect width="289" height="127" rx="12" fill="#FBD133"/>
<path d="M582.311 -130.089C582.325 -120.939 584.596 -111.935 588.922 -103.874C551.964 -99.7556 523.387 -72.0269 523.387 -38.431C523.387 -36.6825 523.469 -34.9106 523.622 -33.2091C514.165 -36.7553 504.146 -38.5602 494.048 -38.5366C453.761 -38.5366 420.941 -10.6788 419.101 24.3135C418.038 24.1958 416.97 24.137 415.901 24.1375C406.113 24.1375 397.627 28.9721 393.348 36.0833C386.617 30.481 378.12 27.4499 369.366 27.5288C354.128 27.5288 341.305 36.1419 336.686 48.1229C333.347 47.2171 329.902 46.7594 326.442 46.7617C307.383 46.7617 291.934 60.3503 291.934 77.0954C291.931 78.6175 292.061 80.137 292.32 81.6367C284.081 83.2549 276.703 87.802 271.55 94.4391H270.436C268.311 94.4445 266.193 94.6805 264.118 95.1432C260.173 90.8877 255.224 87.6921 249.724 85.8494C248.341 70.2073 233.478 57.886 215.333 57.886C199.345 57.886 185.901 67.4379 181.986 80.4046C178.043 78.4244 173.69 77.4032 169.279 77.424C157.3 77.424 147.255 84.6994 144.523 94.4977C141.792 84.6994 131.759 77.424 119.768 77.424C115.357 77.4067 111.005 78.4277 107.061 80.4046C103.146 67.4379 89.7018 57.886 73.7136 57.886C55.5686 57.886 40.7057 70.2073 39.3226 85.8494C33.823 87.6921 28.8737 90.8877 24.9285 95.1432C22.8542 94.6805 20.7358 94.4445 18.6106 94.4391H17.4971C12.3466 87.8044 4.97391 83.2575 -3.26178 81.6367C-3.01184 80.1359 -2.88635 78.617 -2.88669 77.0954C-2.88669 60.3503 -18.3357 46.7617 -37.395 46.7617C-40.8549 46.7594 -44.2999 47.2171 -47.6396 48.1229C-52.2578 36.1419 -65.1398 27.5288 -80.3192 27.5288C-89.0842 27.4289 -97.5999 30.448 -104.348 36.0481C-108.627 28.9369 -117.113 24.1023 -126.901 24.1023C-127.97 24.1018 -129.038 24.1606 -130.101 24.2783C-131.953 -10.7023 -164.796 -38.5601 -205.048 -38.5601C-215.149 -38.5686 -225.168 -36.7478 -234.622 -33.1857C-234.469 -34.9106 -234.387 -36.706 -234.387 -38.4075C-234.387 -72.0269 -262.964 -99.7556 -299.934 -103.874C-295.608 -111.935 -293.337 -120.939 -293.323 -130.089C-293.311 -147.234 -301.224 -162.758 -314 -174V137.552H603V-174C590.224 -162.758 582.311 -147.234 582.311 -130.089Z" fill="#FFEEAE"/>
<path d="M28.7885 46.8196C32.8345 41.1579 37.8982 36.2991 43.7205 32.4916C46.3997 30.7966 49.2134 29.3247 52.1333 28.0909C52.4259 28.0287 52.6936 27.8809 52.9023 27.6664C53.111 27.4518 53.2514 27.1801 53.3056 26.8856C55.5008 27.3502 57.6709 27.9265 59.8074 28.6123C61.5159 29.1844 63.259 29.6473 65.0263 29.9983C65.5232 30.0794 65.994 30.2766 66.4004 30.5739C66.8068 30.8712 67.1375 31.2603 67.3655 31.7095C68.159 33.0261 69.0218 34.2994 69.9507 35.524C73.2675 40.5972 75.654 46.2221 76.9979 52.1345C77.5214 54.264 77.8326 56.4793 78.1999 58.6622C78.2917 59.2079 78.7021 59.9803 77.7884 60.2116C77.0647 60.0904 76.3538 59.9016 75.6653 59.6478L34.7097 48.7713C33.2944 48.3954 31.9233 48.0313 30.5522 47.6672C30.215 47.6591 29.8832 47.5794 29.5792 47.4333C29.2752 47.2871 29.0056 47.078 28.7885 46.8196Z" fill="#DAF0F2"/>
<path d="M7.63385 129.683C7.84279 125.335 8.69582 121.042 10.1649 116.944C10.4236 115.97 11.34 115.549 11.6311 114.632C12.0375 114.281 12.5375 114.058 13.0691 113.988C13.6008 113.919 14.141 114.007 14.6232 114.241C25.2121 118.252 36.0494 121.574 47.0674 124.184C50.1634 125.007 53.2858 125.552 56.4288 126.197C57.8208 126.249 59.164 126.722 60.2827 127.552C60.413 128.187 60.353 128.847 60.1103 129.449C59.0052 133.611 57.9 137.772 56.7949 141.933C56.7045 142.576 56.4294 143.178 56.0032 143.666C54.4512 143.819 52.8845 143.645 51.404 143.156C42.7268 141.42 34.2703 139.032 25.7694 136.632C20.2408 135.164 14.8208 133.109 9.42157 131.153C9.0333 131.056 8.67166 130.874 8.3625 130.62C8.05333 130.366 7.80427 130.046 7.63385 129.683Z" fill="#DAF0F2"/>
<path d="M12.9808 109.73C12.6702 107.385 12.993 105 13.9157 102.822C14.3281 100.012 15.3328 97.3229 16.8633 94.9316C17.3665 94.5598 17.9651 94.339 18.5889 94.2949C19.2126 94.2507 19.8359 94.3851 20.3861 94.6823C23.804 96.2535 27.4631 97.2726 31.0635 98.5132C37.6687 100.741 44.2616 102.302 51.1495 104.179C54.5993 105.095 58.0873 105.69 61.5399 106.417C62.9766 106.479 64.3631 106.962 65.5266 107.808C65.6539 108.459 65.59 109.133 65.3424 109.749C64.2491 113.866 63.1439 118.028 62.0388 122.189C61.9484 122.831 61.6733 123.433 61.2471 123.922C59.6951 124.075 58.1284 123.901 56.6479 123.411C47.9824 121.632 39.5025 119.332 31.0576 116.9C25.5732 115.443 20.2181 113.5 14.9308 111.48C14.4745 111.4 14.0497 111.194 13.7049 110.885C13.3601 110.575 13.1092 110.175 12.9808 109.73Z" fill="#DAF0F2"/>
<path d="M87.5245 62.4184C87.8492 62.9786 87.2541 63.4367 87.1247 63.9236C83.8093 76.4078 80.4939 88.892 77.1903 101.332C76.9328 102.366 76.3877 103.306 75.6182 104.042C75.339 104.448 74.9561 104.77 74.5098 104.977C74.0634 105.183 73.57 105.266 73.0808 105.217C70.8005 105.179 68.5465 104.724 66.4293 103.877C65.7625 103.179 66.1184 102.373 66.3183 101.62C67.3882 97.5915 68.4698 93.5186 69.5514 89.4457L76.7701 62.2638C76.8494 61.4796 77.1621 60.7372 77.6675 60.1325C77.959 60.0071 78.2734 59.9437 78.5906 59.9464C78.9078 59.949 79.2209 60.0177 79.5101 60.1479C81.9427 60.7939 84.3753 61.4399 86.8079 62.086C86.9471 62.0607 87.0905 62.0791 87.2187 62.1387C87.347 62.1982 87.4538 62.2959 87.5245 62.4184Z" fill="#5491CD"/>
<path d="M87.524 62.418L87.2586 62.3475C84.1521 61.7595 81.0922 60.9469 78.1033 59.9161C77.3665 56.4504 77.0305 52.9015 76.1258 49.5334C75.0414 46.2584 73.7582 43.0529 72.283 39.9348C70.8094 36.7473 68.328 34.1452 66.7749 31.0788C66.5269 30.5864 66.0052 30.59 65.563 30.4726C63.2631 29.8618 61.14 29.298 58.619 28.6285C57.4248 28.3114 56.1158 28.2481 54.9037 27.6418C54.3612 27.5471 53.8525 27.3141 53.4263 26.9651C53.5792 26.3896 52.7712 26.2224 52.4319 25.8954C52.2234 25.7537 52.0727 25.5419 52.007 25.2984C51.9414 25.0548 51.9653 24.7957 52.0744 24.5682C52.1035 24.4555 52.1561 24.3502 52.2289 24.2593C52.3017 24.1685 52.3929 24.094 52.4964 24.0409C52.6 23.9878 52.7136 23.9573 52.8297 23.9513C52.9459 23.9453 53.0619 23.964 53.1703 24.0062C54.0107 24.2294 54.3171 23.7894 54.4609 23.0693L55.3427 19.7491C55.4188 19.7154 55.504 19.7087 55.5844 19.7301C55.6648 19.7514 55.7355 19.7995 55.7849 19.8665C56.1387 19.9605 56.2513 20.6065 56.8055 20.6589C60.3062 21.2176 63.7628 22.0247 67.1489 23.074C67.8108 23.2662 68.505 23.3215 69.189 23.2366C69.6388 23.2376 70.0806 23.3549 70.4716 23.5772C71.2235 23.7769 71.4946 23.4698 71.9755 23.9766C72.4262 23.5276 72.4177 24.0941 72.9926 24.2468C73.2229 24.2631 73.4481 24.3229 73.6562 24.423C74.8061 24.7284 75.9559 25.0337 77.1059 25.3391C77.5924 25.4683 78.1231 25.6093 78.3711 26.1017L77.7363 28.4923C77.4659 29.5105 76.8625 30.535 78.4077 31.135C78.7173 31.2172 78.8769 31.6861 78.7151 32.1171C78.6406 32.3038 78.5184 32.4676 78.3606 32.5921C78.2029 32.7166 78.0152 32.7973 77.8164 32.8262C76.1128 33.1795 75.9157 33.7432 77.1933 35.1726C80.6872 39.6477 83.3839 44.6926 85.1647 50.0855C86.4332 53.8335 87.3097 57.7034 87.7799 61.6329C87.7314 61.9052 87.6453 62.1694 87.524 62.418Z" fill="#C4DDF3"/>
<path d="M78.3091 25.8012L73.2227 24.4504C67.9595 23.0526 62.6523 21.6432 57.389 20.2454C54.868 19.5759 54.2953 18.5234 54.9654 16C55.6355 13.4766 56.4115 10.5547 57.1286 7.85426C57.3683 6.74096 57.9018 5.71224 58.6737 4.87528C59.4456 4.03833 60.4275 3.42374 61.5172 3.09566C62.3325 3.00114 63.1522 2.9499 63.9728 2.94212L74.7203 5.79632C76.1058 6.27356 77.2455 7.28106 77.8898 8.59809C78.534 9.91512 78.6302 11.4343 78.1573 12.8227C77.593 14.9477 76.9816 17.2497 76.4526 19.2419C76.2169 20.9264 75.7787 22.5764 75.1476 24.1559C76.3417 24.473 77.5359 24.7902 78.7743 25.119C79.3051 25.26 79.9242 25.4244 80.2607 25.9403C79.5889 26.3306 79.1523 25.8355 78.3091 25.8012Z" fill="#54A5DB"/>
<path d="M78.1148 59.8718L87.2701 62.3031C86.3556 62.297 85.4576 62.0585 84.6605 61.6101L78.159 59.8835C77.294 60.0994 76.3811 60.0077 75.5764 59.6242C62.3078 56.1005 49.0392 52.5767 35.7706 49.053C33.2938 48.3953 33.2938 48.3953 32.6237 50.9187L22.6187 88.5927C22.5273 89.3855 22.3213 90.161 22.0073 90.8947C20.7611 91.8433 20.0792 90.667 19.2652 90.1665C19.0528 90.0273 18.8776 89.8381 18.7552 89.6156C18.6327 89.3931 18.5665 89.1439 18.5624 88.8898C18.2224 87.5577 18.2662 86.1563 18.6888 84.8477C21.9455 72.5848 25.2021 60.3219 28.4587 48.0591C28.5998 47.5278 28.7291 47.0409 28.8585 46.5539L78.1735 59.6504L78.1148 59.8718Z" fill="#7ABCE8"/>
<path d="M18.448 89.1443C19.1752 90.2426 20.2756 91.04 21.5453 91.3886C22.1282 91.2009 22.7613 91.2499 23.3083 91.5251C26.9294 92.8659 30.6417 94.0413 34.2981 95.2493C40.5937 97.3951 47.1246 98.6556 53.582 100.37C56.8992 101.251 60.3309 101.878 63.695 102.582C64.6724 102.583 65.6327 102.838 66.4815 103.322C67.1281 104.631 66.2122 105.763 66.0834 106.961C66.0834 106.961 65.9542 107.448 65.5237 107.286C56.295 105.309 47.1134 103.155 38.061 100.514C32.5325 99.0457 27.1097 97.179 21.7457 95.091C20.363 94.2999 18.7295 94.0697 17.1818 94.4477C17.4488 92.9073 17.9425 91.0479 18.448 89.1443Z" fill="#ABDAE7"/>
<path d="M12.9813 109.73C14.1453 110.816 15.5862 111.559 17.1456 111.878C19.7937 112.961 22.5125 113.777 25.2195 114.638C33.2842 117.254 41.4574 119.282 49.6515 121.411C53.3667 122.398 57.1761 123.03 60.9383 123.84C60.9 124.968 60.6066 126.073 60.0801 127.072L59.7206 127.355C49.9377 125.326 40.2252 123.031 30.7099 120.172C25.03 118.65 19.4646 116.728 14.0551 114.422C13.1038 114.172 12.1024 114.185 11.1574 114.458C12.1231 112.961 12.5699 111.279 12.9813 109.73Z" fill="#ABD9E7"/>
<path d="M65.4183 107.684L65.7985 107.5C67.7622 107.454 69.72 107.733 71.592 108.328C72.1376 108.377 72.6643 108.553 73.1302 108.841C73.5961 109.129 73.9883 109.522 74.2758 109.989C74.3129 115.195 72.9527 120.317 70.3373 124.819C70.042 125.035 69.7066 125.19 69.3508 125.275C68.995 125.359 68.6261 125.372 68.2654 125.312C66.0553 125.073 63.8623 124.696 61.6993 124.184C61.495 124.211 61.2882 124.157 61.1243 124.031L65.4183 107.684Z" fill="#C4DDF3"/>
<path d="M60.195 127.528L60.2655 127.263C62.4086 127.288 64.5376 127.614 66.5897 128.231C67.0914 128.294 67.571 128.475 67.9893 128.759C68.4076 129.043 68.7527 129.423 68.9965 129.866C69.0382 135.058 67.6817 140.165 65.0697 144.652C64.7804 144.885 64.4449 145.053 64.0856 145.145C63.7263 145.238 63.3515 145.253 62.986 145.189C60.7496 144.925 58.5311 144.526 56.3432 143.993C56.1603 143.937 56.0068 143.811 55.9155 143.643C57.3381 138.286 58.7607 132.929 60.195 127.528Z" fill="#C4DDF3"/>
<path d="M80.2488 25.9843L75.3394 24.6805C74.676 24.5043 74.3221 24.4103 74.8875 23.7074C75.453 23.0045 75.3343 22.0252 75.5459 21.2283C76.7317 18.3679 77.1096 15.3404 77.8973 12.3743C78.2277 11.1345 78.0988 9.81706 77.5344 8.66538C76.9699 7.51369 76.0081 6.60552 74.8264 6.1086C74.8264 6.1086 74.8264 6.10859 74.5168 6.02637C76.4186 6.53143 78.3649 7.0483 80.2667 7.55337C81.7458 7.98127 83.0054 8.95832 83.7883 10.2849C84.5712 11.6115 84.8183 13.1875 84.479 14.6909C83.609 17.9669 82.7273 21.2871 81.8573 24.5631C81.7606 24.9331 81.5558 25.2659 81.2693 25.519C80.9828 25.7722 80.6276 25.9341 80.2488 25.9843Z" fill="#5393CF"/>
<path d="M63.9616 2.98674C63.7624 3.10178 63.5482 3.18843 63.3251 3.24421C61.8227 3.24546 60.3711 3.79055 59.2384 4.7789C58.1057 5.76724 57.3683 7.13214 57.1622 8.62165C56.4685 11.2336 55.7867 13.8013 55.1048 16.3689C54.4229 18.9366 55.0392 19.2898 57.0295 19.8184L71.7577 23.7297C72.2442 23.8589 72.7307 23.9882 73.173 24.1056L72.598 23.9529C72.2275 24.0748 71.8297 24.0864 71.4529 23.9863C71.076 23.8862 70.7364 23.6788 70.4752 23.3891L69.1038 23.025C68.4994 23.065 67.8933 22.9846 67.3203 22.7883C63.8262 21.8604 60.2879 20.9207 56.7939 19.9928C56.2844 19.8851 55.8243 19.6131 55.4843 19.2185L55.219 19.148C52.3883 18.3963 52.1314 17.7594 52.8839 14.9261C53.6363 12.0928 54.2124 9.92353 54.8708 7.4444C55.0776 6.49207 55.4971 5.59884 56.0978 4.83163C56.6985 4.06442 57.4647 3.44308 58.3392 3.01426C59.2138 2.58544 60.1738 2.3602 61.1475 2.35542C62.1211 2.35065 63.0833 2.5665 63.9616 2.98674Z" fill="#79BCE8"/>
<path d="M74.2755 109.989C71.6122 108.682 68.7452 107.841 65.7982 107.501C65.4729 106.229 66.4213 105.154 66.4616 103.933C66.4616 103.933 66.8597 104.039 67.0629 103.808C68.8349 104.286 70.635 104.654 72.4527 104.908C73.0486 105.009 73.6584 104.99 74.2473 104.854C74.8361 104.717 75.3923 104.465 75.8835 104.113L74.2755 109.989Z" fill="#99C3E7"/>
<path d="M68.9969 129.867C66.4394 127.908 63.1144 128.304 60.2217 127.252L61.1387 123.799C63.2617 124.362 65.6439 124.663 67.7047 124.926C68.5692 124.959 69.4349 124.92 70.2929 124.808L68.9969 129.867Z" fill="#99C4E9"/>
<path d="M67.0632 103.808L66.4619 103.933C58.3949 102.217 50.3749 100.324 42.4255 98.1655C37.2065 96.7795 32.1377 95.0068 26.9775 93.3995C25.1199 92.9061 23.3563 92.0587 21.5457 91.3883C25.253 77.4284 28.9564 63.4832 32.6559 49.5528C32.9498 48.4461 33.3742 48.2745 34.4357 48.5564L78.1336 60.1611L66.9765 102.174C66.7794 102.737 66.2374 103.352 67.0632 103.808Z" fill="#54A6DC"/>
<path d="M55.4986 19.6956L69.1654 23.3251C68.878 23.468 68.5622 23.5448 68.2413 23.5498C67.9205 23.5548 67.6027 23.4879 67.3111 23.354L58.9078 21.1223C58.3467 20.9239 57.7464 20.862 57.1565 20.9416C56.0984 21.1819 55.5378 20.7961 55.4986 19.6956Z" fill="#DAF0F2"/>
<path d="M54.458 16.4813L57.4207 5.3252L57.6861 5.39567L54.7234 16.5518L54.458 16.4813Z" fill="#54A5DB"/>
<path d="M67.0643 76.6998C67.1466 76.3899 67.3112 75.7701 67.6326 75.8081C67.9539 75.846 67.9544 76.5571 67.8486 76.9555C67.7428 77.3539 67.6018 77.8852 67.1595 77.7677C66.7172 77.6503 67.0794 77.1778 67.0643 76.6998Z" fill="#5EABDE"/>
<path d="M50.0306 72.5554C49.7837 73.4851 49.5369 74.4147 49.5996 75.4266C49.6623 76.4385 49.4233 76.0907 48.9928 75.929C48.5623 75.7673 48.6887 75.4691 48.8035 75.2152C48.9183 74.9613 49.2856 73.4001 49.8421 72.5527L50.0306 72.5554Z" fill="#76B6E4"/>
<path d="M47.4243 93.4266C61.9094 97.2734 75.6942 92.7015 78.2135 83.215C80.7328 73.7285 71.0326 62.9197 56.5475 59.0729C42.0624 55.2262 28.2774 59.798 25.7581 69.2845C23.2388 78.771 32.9392 89.5799 47.4243 93.4266Z" fill="white"/>
<mask id="mask0_397_1275" style="mask-type:luminance" maskUnits="userSpaceOnUse" x="25" y="57" width="54" height="38">
<path d="M47.4243 93.4266C61.9094 97.2734 75.6942 92.7015 78.2135 83.215C80.7328 73.7285 71.0326 62.9197 56.5475 59.0729C42.0624 55.2262 28.2774 59.798 25.7581 69.2845C23.2388 78.771 32.9392 89.5799 47.4243 93.4266Z" fill="white"/>
</mask>
<g mask="url(#mask0_397_1275)">
<path d="M35.3226 90.4976C35.3226 90.4976 45.8024 86.6932 48.4752 85.3651C51.1479 84.037 51.958 87.0483 53.8318 89.4416C55.8691 91.6559 58.1059 93.6777 60.5138 95.4814L54.6897 96.7309L35.3226 90.4976Z" fill="#7ABCE8"/>
<path d="M44.6957 95.4986C44.6957 95.4986 57.3617 90.2369 59.3425 89.9098C61.3233 89.5828 60.3005 93.4343 63.9866 94.8872C67.6727 96.34 53.6242 98.2489 53.6242 98.2489L44.6957 95.4986Z" fill="#7CC89A"/>
<path d="M32.8938 87.3408C32.8938 87.3408 37.376 85.261 39.125 86.3416C40.874 87.4222 42.8525 91.739 44.2298 92.4365C45.709 93.3153 47.01 94.4646 48.0648 95.8246L39.9951 94.2976L32.8938 87.3408Z" fill="#7CC89A"/>
</g>
<path d="M36.6542 78.1254L35.0698 77.7046L32.9219 71.331L31.4823 76.7519L29.8979 76.3311L31.9987 68.4205L33.5831 68.8412L35.728 75.2262L37.1706 69.794L38.755 70.2147L36.6542 78.1254ZM41.8657 79.5942C41.1263 79.3978 40.4933 79.044 39.9668 78.5326C39.4403 78.0212 39.0772 77.4119 38.8773 76.7046C38.6795 75.9898 38.6837 75.2438 38.8901 74.4667C39.0945 73.6971 39.4589 73.0549 39.9833 72.5399C40.5098 72.0174 41.1284 71.6648 41.8392 71.482C42.5501 71.2993 43.2752 71.3061 44.0146 71.5024C44.7615 71.7008 45.3944 72.0547 45.9134 72.564C46.4399 73.0754 46.7983 73.6875 46.9886 74.4003C47.1884 75.1076 47.1862 75.846 46.9818 76.6156C46.7754 77.3927 46.409 78.0425 45.8826 78.565C45.3657 79.0819 44.7518 79.4318 44.041 79.6146C43.3302 79.7973 42.605 79.7905 41.8657 79.5942ZM42.2413 78.1795C42.7167 78.3058 43.1634 78.3113 43.5817 78.1963C44.0019 78.0736 44.367 77.8394 44.6769 77.4937C44.9868 77.1479 45.2119 76.7109 45.3522 76.1828C45.4924 75.6547 45.5128 75.1674 45.4133 74.721C45.3157 74.267 45.114 73.8863 44.8079 73.5789C44.5019 73.2715 44.1112 73.0546 43.6359 72.9284C43.1606 72.8022 42.71 72.7956 42.2842 72.9087C41.866 73.0237 41.5019 73.2542 41.192 73.5999C40.8841 73.9382 40.66 74.3713 40.5198 74.8995C40.3795 75.4276 40.3581 75.9187 40.4556 76.3726C40.5532 76.8266 40.7539 77.2111 41.058 77.526C41.3716 77.8355 41.766 78.0533 42.2413 78.1795ZM52.6209 83.8558L51.8029 82.0999C51.4489 82.0948 51.0984 82.0461 50.7513 81.9539C50.012 81.7576 49.379 81.4037 48.8525 80.8924C48.326 80.381 47.9628 79.7717 47.763 79.0644C47.5651 78.3495 47.5694 77.6036 47.7758 76.8264C47.9802 76.0569 48.3446 75.4146 48.869 74.8997C49.3954 74.3772 50.0141 74.0246 50.7249 73.8418C51.4358 73.659 52.1609 73.6658 52.9002 73.8622C53.6472 74.0606 54.2801 74.4144 54.7991 74.9238C55.3256 75.4351 55.684 76.0472 55.8743 76.7601C56.0741 77.4674 56.0719 78.2058 55.8675 78.9754C55.6812 79.677 55.36 80.2782 54.9039 80.779C54.4574 81.2743 53.9295 81.6349 53.3203 81.8608L54.59 84.3787L52.6209 83.8558ZM49.4054 77.2592C49.2652 77.7874 49.2438 78.2784 49.3413 78.7324C49.4388 79.1864 49.6396 79.5708 49.9437 79.8858C50.2573 80.1952 50.6517 80.4131 51.127 80.5393C51.6023 80.6655 52.0491 80.6711 52.4674 80.556C52.8876 80.4334 53.2527 80.1992 53.5626 79.8534C53.8725 79.5076 54.0976 79.0707 54.2378 78.5426C54.3781 78.0144 54.3985 77.5272 54.2989 77.0807C54.2014 76.6268 53.9997 76.2461 53.6936 75.9386C53.3876 75.6312 52.9969 75.4144 52.5216 75.2882C52.0462 75.1619 51.5957 75.1553 51.1699 75.2684C50.7516 75.3835 50.3876 75.6139 50.0777 75.9597C49.7698 76.2979 49.5457 76.7311 49.4054 77.2592ZM59.673 75.782L58.3746 80.671C58.2324 81.2066 58.2628 81.6549 58.4658 82.0157C58.6708 82.369 59.0261 82.6128 59.5316 82.747C60.0446 82.8833 60.4778 82.8489 60.8311 82.6439C61.1863 82.4313 61.4351 82.0572 61.5774 81.5215L62.8757 76.6325L64.4714 77.0563L63.1761 81.934C62.9978 82.6054 62.6994 83.136 62.2809 83.5256C61.872 83.9097 61.3913 84.1536 60.8387 84.2572C60.2938 84.3629 59.7233 84.3366 59.1272 84.1783C58.5387 84.022 58.0341 83.7628 57.6134 83.4007C57.2002 83.0406 56.9151 82.5933 56.7582 82.059C56.6032 81.5171 56.6149 80.9104 56.7933 80.2389L58.0886 75.3612L59.673 75.782ZM69.1479 85.1433L66.0017 84.3078L65.0814 85.6747L63.4178 85.2329L68.3592 78.0766L70.2039 78.5665L70.9437 87.2316L69.2688 86.7867L69.1479 85.1433ZM69.0545 83.7616L68.789 80.1535L66.7684 83.1545L69.0545 83.7616Z" fill="#54A6DC"/>
<path d="M115.241 38.2872V39.6977H111.609V41.9321H114.392V43.3176H111.609V47H109.861V38.2872H115.241ZM118.228 41.1582C118.453 40.792 118.744 40.5049 119.102 40.2969C119.468 40.0888 119.884 39.9848 120.35 39.9848V41.8197H119.888C119.339 41.8197 118.923 41.9487 118.64 42.2067C118.365 42.4647 118.228 42.914 118.228 43.5548V47H116.48V40.0847H118.228V41.1582ZM127.956 43.3925C127.956 43.6422 127.939 43.8669 127.906 44.0666H122.85C122.892 44.5659 123.067 44.957 123.375 45.24C123.682 45.5229 124.061 45.6644 124.51 45.6644C125.16 45.6644 125.621 45.3856 125.896 44.828H127.781C127.581 45.4938 127.198 46.043 126.632 46.4757C126.067 46.9001 125.372 47.1123 124.548 47.1123C123.882 47.1123 123.283 46.9667 122.75 46.6755C122.226 46.3759 121.814 45.9556 121.515 45.4147C121.223 44.8738 121.078 44.2497 121.078 43.5423C121.078 42.8267 121.223 42.1984 121.515 41.6575C121.806 41.1166 122.214 40.7005 122.738 40.4092C123.262 40.118 123.866 39.9723 124.548 39.9723C125.205 39.9723 125.792 40.1138 126.308 40.3967C126.832 40.6797 127.236 41.0833 127.519 41.6075C127.81 42.1235 127.956 42.7185 127.956 43.3925ZM126.146 42.8932C126.137 42.4439 125.975 42.086 125.659 41.8197C125.343 41.5451 124.956 41.4078 124.498 41.4078C124.065 41.4078 123.699 41.541 123.399 41.8073C123.108 42.0652 122.929 42.4272 122.863 42.8932H126.146ZM131.877 47.1123C131.312 47.1123 130.804 47.0125 130.355 46.8128C129.905 46.6047 129.547 46.3259 129.281 45.9764C129.023 45.6269 128.882 45.24 128.857 44.8156H130.617C130.65 45.0818 130.779 45.3024 131.004 45.4771C131.237 45.6519 131.524 45.7393 131.865 45.7393C132.198 45.7393 132.456 45.6727 132.639 45.5395C132.83 45.4064 132.926 45.2358 132.926 45.0278C132.926 44.8031 132.81 44.6366 132.576 44.5285C132.352 44.412 131.99 44.2871 131.491 44.154C130.975 44.0292 130.55 43.9002 130.217 43.767C129.893 43.6339 129.61 43.43 129.368 43.1554C129.135 42.8808 129.019 42.5104 129.019 42.0444C129.019 41.6616 129.127 41.3121 129.344 40.9959C129.568 40.6797 129.884 40.43 130.292 40.2469C130.708 40.0639 131.195 39.9723 131.753 39.9723C132.576 39.9723 133.234 40.1804 133.725 40.5965C134.216 41.0042 134.486 41.5576 134.536 42.2566H132.864C132.839 41.982 132.722 41.7657 132.514 41.6075C132.314 41.4411 132.044 41.3579 131.703 41.3579C131.386 41.3579 131.141 41.4161 130.966 41.5326C130.8 41.6492 130.717 41.8114 130.717 42.0195C130.717 42.2525 130.833 42.4314 131.066 42.5562C131.299 42.6727 131.661 42.7934 132.152 42.9182C132.651 43.043 133.063 43.172 133.388 43.3052C133.712 43.4383 133.991 43.6464 134.224 43.9293C134.466 44.2039 134.59 44.5701 134.599 45.0278C134.599 45.4272 134.486 45.785 134.262 46.1013C134.045 46.4175 133.729 46.6671 133.313 46.8502C132.905 47.025 132.427 47.1123 131.877 47.1123ZM139.928 39.9848C140.452 39.9848 140.918 40.1013 141.326 40.3343C141.734 40.559 142.05 40.896 142.274 41.3454C142.507 41.7865 142.624 42.319 142.624 42.9432V47H140.876V43.1803C140.876 42.6311 140.739 42.2109 140.464 41.9196C140.19 41.62 139.815 41.4702 139.341 41.4702C138.858 41.4702 138.476 41.62 138.193 41.9196C137.918 42.2109 137.781 42.6311 137.781 43.1803V47H136.033V37.7629H137.781V40.946C138.005 40.6464 138.305 40.4134 138.679 40.2469C139.054 40.0722 139.47 39.9848 139.928 39.9848ZM150.714 43.3925C150.714 43.6422 150.698 43.8669 150.664 44.0666H145.609C145.651 44.5659 145.825 44.957 146.133 45.24C146.441 45.5229 146.82 45.6644 147.269 45.6644C147.918 45.6644 148.38 45.3856 148.655 44.828H150.54C150.34 45.4938 149.957 46.043 149.391 46.4757C148.825 46.9001 148.13 47.1123 147.307 47.1123C146.641 47.1123 146.042 46.9667 145.509 46.6755C144.985 46.3759 144.573 45.9556 144.273 45.4147C143.982 44.8738 143.836 44.2497 143.836 43.5423C143.836 42.8267 143.982 42.1984 144.273 41.6575C144.565 41.1166 144.972 40.7005 145.497 40.4092C146.021 40.118 146.624 39.9723 147.307 39.9723C147.964 39.9723 148.551 40.1138 149.067 40.3967C149.591 40.6797 149.994 41.0833 150.277 41.6075C150.569 42.1235 150.714 42.7185 150.714 43.3925ZM148.904 42.8932C148.896 42.4439 148.734 42.086 148.418 41.8197C148.101 41.5451 147.714 41.4078 147.257 41.4078C146.824 41.4078 146.458 41.541 146.158 41.8073C145.867 42.0652 145.688 42.4272 145.621 42.8932H148.904ZM155.822 39.9848C156.646 39.9848 157.312 40.2469 157.819 40.7712C158.327 41.2872 158.581 42.0111 158.581 42.9432V47H156.833V43.1803C156.833 42.6311 156.696 42.2109 156.421 41.9196C156.147 41.62 155.772 41.4702 155.298 41.4702C154.815 41.4702 154.432 41.62 154.149 41.9196C153.875 42.2109 153.737 42.6311 153.737 43.1803V47H151.99V40.0847H153.737V40.946C153.97 40.6464 154.266 40.4134 154.624 40.2469C154.99 40.0722 155.389 39.9848 155.822 39.9848ZM169.833 40.0847L165.551 50.2704H163.691L165.189 46.8252L162.418 40.0847H164.378L166.163 44.9154L167.973 40.0847H169.833ZM173.845 47.1123C173.18 47.1123 172.58 46.9667 172.048 46.6755C171.515 46.3759 171.095 45.9556 170.787 45.4147C170.488 44.8738 170.338 44.2497 170.338 43.5423C170.338 42.835 170.492 42.2109 170.8 41.67C171.116 41.129 171.544 40.713 172.085 40.4217C172.626 40.1221 173.23 39.9723 173.895 39.9723C174.561 39.9723 175.164 40.1221 175.705 40.4217C176.246 40.713 176.671 41.129 176.978 41.67C177.295 42.2109 177.453 42.835 177.453 43.5423C177.453 44.2497 177.291 44.8738 176.966 45.4147C176.65 45.9556 176.217 46.3759 175.668 46.6755C175.127 46.9667 174.519 47.1123 173.845 47.1123ZM173.845 45.5895C174.162 45.5895 174.457 45.5146 174.732 45.3648C175.015 45.2067 175.239 44.9737 175.406 44.6658C175.572 44.3579 175.655 43.9834 175.655 43.5423C175.655 42.8849 175.481 42.3815 175.131 42.0319C174.79 41.6741 174.37 41.4952 173.87 41.4952C173.371 41.4952 172.951 41.6741 172.61 42.0319C172.277 42.3815 172.11 42.8849 172.11 43.5423C172.11 44.1997 172.273 44.7074 172.597 45.0652C172.93 45.4147 173.346 45.5895 173.845 45.5895ZM185.263 40.0847V47H183.503V46.1262C183.278 46.4258 182.983 46.663 182.617 46.8377C182.259 47.0042 181.868 47.0874 181.443 47.0874C180.902 47.0874 180.424 46.975 180.008 46.7503C179.592 46.5173 179.263 46.1803 179.022 45.7393C178.789 45.2899 178.672 44.7573 178.672 44.1415V40.0847H180.42V43.8918C180.42 44.4411 180.557 44.8655 180.832 45.1651C181.106 45.4563 181.481 45.602 181.955 45.602C182.438 45.602 182.816 45.4563 183.091 45.1651C183.366 44.8655 183.503 44.4411 183.503 43.8918V40.0847H185.263ZM188.735 41.1582C188.96 40.792 189.251 40.5049 189.609 40.2969C189.975 40.0888 190.391 39.9848 190.857 39.9848V41.8197H190.395C189.846 41.8197 189.43 41.9487 189.147 42.2067C188.872 42.4647 188.735 42.914 188.735 43.5548V47H186.987V40.0847H188.735V41.1582ZM198.054 38.2872C198.969 38.2872 199.772 38.4661 200.463 38.8239C201.162 39.1818 201.699 39.6936 202.073 40.3593C202.456 41.0167 202.648 41.7823 202.648 42.6561C202.648 43.5299 202.456 44.2954 202.073 44.9529C201.699 45.602 201.162 46.1054 200.463 46.4633C199.772 46.8211 198.969 47 198.054 47H195.008V38.2872H198.054ZM197.992 45.5146C198.907 45.5146 199.614 45.2649 200.114 44.7656C200.613 44.2663 200.863 43.5631 200.863 42.6561C200.863 41.749 200.613 41.0417 200.114 40.534C199.614 40.0181 198.907 39.7601 197.992 39.7601H196.756V45.5146H197.992ZM203.506 43.5174C203.506 42.8183 203.644 42.1984 203.918 41.6575C204.201 41.1166 204.58 40.7005 205.054 40.4092C205.537 40.118 206.074 39.9723 206.664 39.9723C207.18 39.9723 207.63 40.0763 208.013 40.2844C208.404 40.4924 208.716 40.7546 208.949 41.0708V40.0847H210.709V47H208.949V45.9889C208.724 46.3135 208.412 46.5839 208.013 46.8003C207.621 47.0083 207.168 47.1123 206.652 47.1123C206.069 47.1123 205.537 46.9626 205.054 46.663C204.58 46.3634 204.201 45.9431 203.918 45.4022C203.644 44.853 203.506 44.2247 203.506 43.5174ZM208.949 43.5423C208.949 43.1179 208.866 42.7559 208.699 42.4564C208.533 42.1485 208.308 41.9154 208.025 41.7573C207.742 41.5909 207.438 41.5077 207.114 41.5077C206.789 41.5077 206.49 41.5867 206.215 41.7448C205.94 41.903 205.716 42.136 205.541 42.4439C205.375 42.7435 205.291 43.1013 205.291 43.5174C205.291 43.9335 205.375 44.2996 205.541 44.6158C205.716 44.9237 205.94 45.1609 206.215 45.3273C206.498 45.4938 206.798 45.577 207.114 45.577C207.438 45.577 207.742 45.4979 208.025 45.3398C208.308 45.1734 208.533 44.9404 208.699 44.6408C208.866 44.3329 208.949 43.9667 208.949 43.5423ZM219.031 40.0847L214.75 50.2704H212.89L214.388 46.8252L211.617 40.0847H213.576L215.361 44.9154L217.171 40.0847H219.031ZM222.233 38.1374L222.033 44.1665H220.56L220.348 38.1374H222.233ZM221.334 47.0874C221.018 47.0874 220.756 46.9917 220.548 46.8003C220.348 46.6006 220.248 46.3551 220.248 46.0638C220.248 45.7725 220.348 45.5312 220.548 45.3398C220.756 45.1401 221.018 45.0402 221.334 45.0402C221.642 45.0402 221.896 45.1401 222.095 45.3398C222.295 45.5312 222.395 45.7725 222.395 46.0638C222.395 46.3551 222.295 46.6006 222.095 46.8003C221.896 46.9917 221.642 47.0874 221.334 47.0874Z" fill="#E96200"/>
<path d="M122.999 71.302C124.139 71.5692 125.021 72.1213 125.644 72.9584C126.285 73.7777 126.606 74.7306 126.606 75.817C126.606 77.4735 126.054 78.7558 124.95 79.6642C123.863 80.5547 122.296 81 120.248 81H110.336V62.0849H119.98C121.904 62.0849 123.418 62.5034 124.522 63.3406C125.626 64.1777 126.179 65.3977 126.179 67.0007C126.179 68.105 125.885 69.04 125.297 69.8059C124.727 70.5539 123.961 71.0526 122.999 71.302ZM116.267 69.4586H118.564C119.099 69.4586 119.491 69.3517 119.74 69.138C120.007 68.9243 120.141 68.5948 120.141 68.1495C120.141 67.6864 120.007 67.348 119.74 67.1343C119.491 66.9027 119.099 66.787 118.564 66.787H116.267V69.4586ZM118.965 76.2445C119.499 76.2445 119.891 76.1465 120.141 75.9506C120.408 75.7369 120.541 75.3985 120.541 74.9354C120.541 74.0271 120.016 73.5729 118.965 73.5729H116.267V76.2445H118.965ZM144.548 65.932V81H138.617V78.7024C138.154 79.4148 137.531 79.9937 136.747 80.439C135.981 80.8842 135.064 81.1069 133.996 81.1069C132.268 81.1069 130.914 80.528 129.935 79.3703C128.973 78.2126 128.492 76.6453 128.492 74.6682V65.932H134.396V73.9202C134.396 74.6326 134.583 75.2026 134.957 75.63C135.349 76.0397 135.866 76.2445 136.507 76.2445C137.166 76.2445 137.682 76.0397 138.056 75.63C138.43 75.2026 138.617 74.6326 138.617 73.9202V65.932H144.548ZM164.245 65.932L154.601 88.2134H148.109L151.903 80.2519L145.624 65.932H152.223L155.055 73.5729L157.7 65.932H164.245ZM173.318 67.0274V61.4704H182.375V81H176.15V67.0274H173.318ZM199.561 65.745C200.54 65.745 201.386 65.9498 202.099 66.3595C202.811 66.7513 203.354 67.2946 203.728 67.9892V65.932H209.633V80.7328C209.633 82.1399 209.374 83.4223 208.858 84.58C208.341 85.7377 207.504 86.6638 206.347 87.3585C205.207 88.0531 203.737 88.4004 201.938 88.4004C199.516 88.4004 197.592 87.8305 196.168 86.6906C194.761 85.5685 193.959 84.0367 193.763 82.0954H199.587C199.748 82.879 200.389 83.2709 201.511 83.2709C202.205 83.2709 202.749 83.0928 203.141 82.7366C203.532 82.3803 203.728 81.7124 203.728 80.7328V78.9428C203.354 79.6375 202.811 80.1896 202.099 80.5993C201.386 80.9911 200.54 81.187 199.561 81.187C198.385 81.187 197.325 80.8842 196.381 80.2787C195.437 79.6553 194.689 78.7647 194.137 77.607C193.603 76.4315 193.336 75.0512 193.336 73.466C193.336 71.8809 193.603 70.5094 194.137 69.3517C194.689 68.1762 195.437 67.2857 196.381 66.6801C197.325 66.0567 198.385 65.745 199.561 65.745ZM203.728 73.466C203.728 72.6645 203.523 72.0412 203.114 71.5959C202.704 71.1506 202.179 70.928 201.538 70.928C200.896 70.928 200.371 71.1506 199.961 71.5959C199.552 72.0412 199.347 72.6645 199.347 73.466C199.347 74.2675 199.552 74.8909 199.961 75.3362C200.371 75.7814 200.896 76.0041 201.538 76.0041C202.179 76.0041 202.704 75.7814 203.114 75.3362C203.523 74.8909 203.728 74.2675 203.728 73.466ZM226.883 73.3324C226.883 73.7421 226.856 74.1339 226.803 74.508H217.265C217.354 75.8081 217.897 76.4582 218.895 76.4582C219.536 76.4582 219.999 76.1644 220.284 75.5766H226.562C226.349 76.6453 225.894 77.607 225.2 78.462C224.523 79.2991 223.659 79.967 222.608 80.4657C221.575 80.9466 220.435 81.187 219.189 81.187C217.693 81.187 216.357 80.8753 215.181 80.2519C214.024 79.6286 213.115 78.738 212.456 77.5803C211.815 76.4048 211.494 75.0334 211.494 73.466C211.494 71.8987 211.815 70.5361 212.456 69.3784C213.115 68.2029 214.024 67.3035 215.181 66.6801C216.357 66.0567 217.693 65.745 219.189 65.745C220.685 65.745 222.012 66.0567 223.169 66.6801C224.345 67.2857 225.253 68.1584 225.894 69.2983C226.553 70.4382 226.883 71.7829 226.883 73.3324ZM220.872 71.9165C220.872 71.4178 220.711 71.0437 220.391 70.7944C220.07 70.5272 219.67 70.3936 219.189 70.3936C218.138 70.3936 217.523 70.9013 217.345 71.9165H220.872ZM238.136 75.9506V81H235.892C231.76 81 229.694 78.9428 229.694 74.8285V70.8745H227.824V65.932H229.694V62.2986H235.625V65.932H238.083V70.8745H235.625V74.9354C235.625 75.2916 235.705 75.5499 235.865 75.7102C236.043 75.8705 236.328 75.9506 236.72 75.9506H238.136ZM248.406 67.0274V61.4704H257.462V81H251.238V67.0274H248.406Z" fill="#E96200"/>
</g>
<defs>
<clipPath id="clip0_397_1275">
<rect width="289" height="127" rx="12" fill="white"/>
</clipPath>
</defs>
</svg>
