<svg width="46" height="47" viewBox="0 0 46 47" fill="none" xmlns="http://www.w3.org/2000/svg">
<g clip-path="url(#clip0_269_2609)">
<path opacity="0.977" fill-rule="evenodd" clip-rule="evenodd" d="M20.8887 0.676353C17.3074 1.1492 14.103 2.51183 11.2754 4.76424C5.17697 10.2898 3.29025 17.0131 5.61523 24.9342C3.39949 26.9997 2.11173 29.5452 1.75195 32.5709C0.786751 30.3272 0.187793 27.9913 -0.0449219 25.5631C-0.0449219 24.2453 -0.0449219 22.9277 -0.0449219 21.6099C1.07652 12.5982 5.74839 6.17431 13.9707 2.33846C16.1857 1.40286 18.4917 0.848823 20.8887 0.676353Z" fill="#F9DD50"/>
<path opacity="0.991" fill-rule="evenodd" clip-rule="evenodd" d="M44.9668 16.6685C45.4251 18.3013 45.7545 19.9484 45.9551 21.61C45.9551 22.9277 45.9551 24.2453 45.9551 25.5631C44.8336 34.5749 40.1618 40.9987 31.9395 44.8346C29.6766 45.7597 27.3406 46.3437 24.9316 46.5865C23.6139 46.5865 22.2963 46.5865 20.9785 46.5865C18.5503 46.3538 16.2144 45.7548 13.9707 44.7896C16.5529 44.5163 18.799 43.5131 20.709 41.7799C22.2844 40.1895 23.8716 38.6172 25.4707 37.0631C31.5803 36.0867 36.1475 32.9123 39.1719 27.5396C40.1692 25.6109 40.8131 23.5744 41.1035 21.4303C41.9117 20.6071 42.7052 19.7686 43.4844 18.9146C44.0015 18.1745 44.4957 17.4258 44.9668 16.6685Z" fill="#F9DD50"/>
<ellipse cx="23.9698" cy="20.2997" rx="21.0388" ry="19.8504" transform="rotate(-0.274135 23.9698 20.2997)" fill="#F9DD50"/>
<ellipse cx="23.818" cy="22.8815" rx="18.5876" ry="18.2" transform="rotate(-0.274135 23.818 22.8815)" fill="#F1F1A6"/>
<path opacity="0.998" fill-rule="evenodd" clip-rule="evenodd" d="M33.2871 0.58651C34.2155 0.58651 35.1439 0.58651 36.0723 0.58651C41.6127 1.63469 44.9069 4.92895 45.9551 10.4693C45.9551 11.3977 45.9551 12.3261 45.9551 13.2545C45.7672 14.4239 45.4378 15.5619 44.9668 16.6685C44.4957 17.4257 44.0015 18.1745 43.4844 18.9146C42.7052 19.7686 41.9117 20.6071 41.1035 21.4303C35.8627 26.6113 30.6517 31.8222 25.4707 37.0631C23.8716 38.6172 22.2844 40.1895 20.709 41.7799C18.799 43.5131 16.5529 44.5163 13.9707 44.7896C9.06739 42.6869 5.30893 39.3028 2.69531 34.6373C2.33057 33.968 2.01612 33.2791 1.75195 32.5709C2.11173 29.5452 3.39949 26.9997 5.61523 24.9342C12.7547 17.8397 19.8823 10.727 26.998 3.59628C27.808 2.88987 28.6764 2.27594 29.6035 1.75448C29.7407 1.76104 29.8306 1.70114 29.873 1.57479C30.9797 1.10382 32.1177 0.774389 33.2871 0.58651Z" fill="#D3EAFD"/>
<path fill-rule="evenodd" clip-rule="evenodd" d="M26.6386 8.40293C27.444 8.29732 28.1628 8.49198 28.7949 8.98691C31.7148 11.9068 34.6347 14.8268 37.5547 17.7467C38.2599 18.6634 38.3199 19.6216 37.7343 20.6217C32.3886 25.9674 27.0429 31.3131 21.6972 36.6588C20.8574 37.0737 20.0189 37.0737 19.1816 36.6588C16.1119 33.5891 13.0423 30.5195 9.97263 27.4498C9.47759 26.5982 9.44767 25.7297 9.88278 24.8443C15.2285 19.4986 20.5742 14.1529 25.9199 8.80722C26.1534 8.64595 26.393 8.51119 26.6386 8.40293Z" fill="#9DD3E9"/>
<path fill-rule="evenodd" clip-rule="evenodd" d="M27.1778 12.1764C28.3097 12.1532 28.6841 12.6623 28.3008 13.7037C27.7467 14.2578 27.1928 14.8117 26.6387 15.3658C27.1478 15.875 27.6569 16.384 28.166 16.8932C28.226 16.9531 28.2858 16.9531 28.3457 16.8932C28.9175 16.2913 29.5165 15.7223 30.1426 15.1861C31.2114 15.0871 31.5857 15.5512 31.2656 16.5787C30.6953 17.134 30.1413 17.703 29.6035 18.2857C30.1113 18.8384 30.6354 19.3775 31.1758 19.9029C31.7626 19.2861 32.3765 18.7022 33.0176 18.151C33.494 17.9669 33.8983 18.0716 34.2305 18.4654C34.3637 18.7531 34.3937 19.0526 34.3203 19.3639C33.7529 20.0062 33.1689 20.6351 32.5684 21.2506C32.8995 21.5967 33.214 21.956 33.5117 22.3287C33.6315 23.3168 33.1973 23.7211 32.209 23.5416C31.8377 23.2603 31.4933 22.9458 31.1758 22.5982C30.6517 23.1223 30.1276 23.6464 29.6035 24.1705C29.9511 24.488 30.2656 24.8324 30.5469 25.2037C30.7264 26.192 30.3221 26.6262 29.334 26.5064C28.9613 26.2087 28.602 25.8942 28.2559 25.5631C27.7168 26.0722 27.1778 26.5813 26.6387 27.0904C26.9998 27.4664 27.3442 27.8557 27.6719 28.2584C27.7528 29.1359 27.3485 29.5402 26.459 29.4713C26.0727 29.175 25.7133 28.8455 25.3809 28.483C24.8132 28.9454 24.2741 29.4695 23.7637 30.0553C24.0949 30.4013 24.4093 30.7607 24.7071 31.1334C24.8268 32.1215 24.3926 32.5258 23.4043 32.3463C23.033 32.065 22.6886 31.7505 22.3711 31.4029C21.7809 32.0533 21.1371 32.6373 20.4395 33.1549C19.4961 33.2896 19.0918 32.8853 19.2266 31.942C19.794 31.2996 20.378 30.6707 20.9785 30.0553C20.4681 29.4695 19.9291 28.9454 19.3614 28.483C18.8223 29.0221 18.2832 29.5611 17.7442 30.1002C16.7524 30.4799 16.2582 30.1354 16.2617 29.067C16.8279 28.4109 17.4268 27.7819 18.0586 27.1803C17.5962 26.6125 17.0721 26.0735 16.4864 25.5631C15.8709 26.1636 15.242 26.7476 14.5996 27.315C13.6158 27.4314 13.2115 26.9972 13.3867 26.0123C13.9379 25.3712 14.5219 24.7573 15.1387 24.1705C14.821 23.8829 14.5365 23.5685 14.2852 23.2271C13.9652 22.1997 14.3394 21.7355 15.4082 21.8346C15.7645 22.1009 16.094 22.4003 16.3965 22.733C16.4564 22.7929 16.5163 22.7929 16.5762 22.733C17.0853 22.2239 17.5944 21.7148 18.1035 21.2057C17.726 20.8582 17.3816 20.4839 17.0703 20.0826C16.9955 19.1992 17.3998 18.7949 18.2832 18.8697C18.6395 19.136 18.969 19.4355 19.2715 19.7682C19.3614 19.8281 19.4512 19.8281 19.541 19.7682C20.0365 19.2877 20.5157 18.7935 20.9785 18.2857C20.6474 17.9397 20.3329 17.5803 20.0352 17.2076C19.9154 16.2195 20.3496 15.8152 21.3379 15.9947C21.7092 16.276 22.0536 16.5905 22.3711 16.9381C22.8952 16.414 23.4193 15.8899 23.9434 15.3658C23.5958 15.0483 23.2813 14.7039 23 14.3326C22.8205 13.3443 23.2248 12.9101 24.2129 13.0299C24.5856 13.3276 24.945 13.6421 25.291 13.9732C25.9242 13.3698 26.5531 12.7709 27.1778 12.1764Z" fill="#75B8CE"/>
<path fill-rule="evenodd" clip-rule="evenodd" d="M25.2012 16.7584C25.7933 17.2302 26.3624 17.7393 26.9082 18.2857C26.3991 18.8547 25.86 19.3938 25.291 19.9029C24.7819 19.3639 24.2728 18.8248 23.7637 18.2857C24.2448 17.7748 24.7239 17.2657 25.2012 16.7584Z" fill="#9DD3E9"/>
<path fill-rule="evenodd" clip-rule="evenodd" d="M22.3262 19.6334C22.8933 20.1407 23.4323 20.6797 23.9434 21.2506C23.4615 21.8073 22.9375 22.3164 22.3711 22.7779C21.8047 22.3164 21.2807 21.8073 20.7988 21.2506C21.3099 20.7097 21.819 20.1707 22.3262 19.6334Z" fill="#9DD3E9"/>
<path fill-rule="evenodd" clip-rule="evenodd" d="M28.166 19.6334C28.7288 20.1363 29.2679 20.6754 29.7832 21.2506C29.3041 21.7896 28.7949 22.2988 28.2559 22.7779C27.7031 22.2701 27.1641 21.7461 26.6387 21.2057C27.1661 20.6934 27.6751 20.1693 28.166 19.6334Z" fill="#9DD3E9"/>
<path fill-rule="evenodd" clip-rule="evenodd" d="M19.3613 22.5982C19.9709 23.043 20.51 23.5671 20.9785 24.1705C20.517 24.7369 20.0078 25.2609 19.4512 25.7428C18.8985 25.235 18.3594 24.7109 17.834 24.1705C18.3614 23.6582 18.8704 23.1342 19.3613 22.5982Z" fill="#9DD3E9"/>
<path fill-rule="evenodd" clip-rule="evenodd" d="M25.2012 22.5982C25.807 23.0687 26.3761 23.5929 26.9082 24.1705C26.3828 24.7109 25.8437 25.235 25.291 25.7428C24.7343 25.2609 24.2252 24.7369 23.7637 24.1705C24.2271 23.6322 24.7062 23.1081 25.2012 22.5982Z" fill="#9DD3E9"/>
<path fill-rule="evenodd" clip-rule="evenodd" d="M22.2363 25.5631C22.3308 25.5497 22.4207 25.5646 22.5059 25.608C23.0013 26.0885 23.4805 26.5826 23.9434 27.0904C23.4356 27.6431 22.9115 28.1822 22.3711 28.7076C21.8307 28.1822 21.3066 27.6431 20.7988 27.0904C21.2799 26.5795 21.7591 26.0703 22.2363 25.5631Z" fill="#9DD3E9"/>
</g>
<defs>
<clipPath id="clip0_269_2609">
<rect width="46" height="46.2629" fill="white" transform="translate(0 0.368576)"/>
</clipPath>
</defs>
</svg>
