<svg width="57" height="44" viewBox="0 0 57 44" fill="none" xmlns="http://www.w3.org/2000/svg">
<g id="logo" clip-path="url(#clip0_222_887)">
<path id="Vector" d="M5.7337 28.0702C3.95957 27.0871 2.50063 25.6283 1.52402 23.8611C0.508006 22.0501 0 19.9514 0 17.5651C0 15.2079 0.523811 13.117 1.57143 11.2926C2.57015 9.51456 4.05761 8.05432 5.8607 7.08178C7.72536 6.08617 9.81542 5.5788 11.9331 5.60767C14.0507 5.5788 16.1408 6.08617 18.0054 7.08178C19.808 8.05506 21.2952 9.51512 22.2947 11.2926C23.3412 13.117 23.865 15.2079 23.8661 17.5651C23.8673 19.9223 23.3293 22.0143 22.2524 23.841C21.2113 25.6306 19.6863 27.0961 17.8496 28.0719C15.965 29.0767 13.8543 29.5914 11.7146 29.5678C9.62326 29.5953 7.56114 29.0789 5.7337 28.0702ZM15.2249 24.5125C16.3439 23.8938 17.2637 22.9743 17.8784 21.8598C18.5558 20.6812 18.8944 19.2496 18.8944 17.5651C18.8944 15.8806 18.5688 14.4562 17.9174 13.2922C17.3247 12.1876 16.4258 11.2741 15.3265 10.6596C14.2644 10.0748 13.0684 9.77067 11.8535 9.77648C10.6419 9.76743 9.44892 10.0718 8.39226 10.6596C7.30618 11.2719 6.42577 12.1874 5.8607 13.2922C5.23755 14.4574 4.92597 15.8817 4.92597 17.5651C4.92597 20.0656 5.57001 21.9958 6.85808 23.3558C8.14616 24.7157 9.76727 25.3962 11.7214 25.3973C12.9461 25.4021 14.1518 25.0976 15.2249 24.5125Z" fill="#FEC34D"/>
<path id="Vector_2" d="M55.0053 7.24127C53.7112 5.0048 51.8236 3.16285 49.5476 1.91567C47.2076 0.659283 44.5885 0.00131226 41.9275 0.00131226C39.2664 0.00131226 36.6474 0.659283 34.3074 1.91567C32.0314 3.16285 30.1437 5.0048 28.8497 7.24127C27.5176 9.51679 26.851 12.0839 26.8499 14.9426C26.8499 15.1105 26.8499 15.2918 26.8499 15.4647V15.5739C26.8499 15.7132 26.86 15.8509 26.8685 15.9869C26.8685 16.0171 26.8685 16.0456 26.8685 16.0742C26.8769 16.2202 26.8871 16.3663 26.9007 16.5124V16.5544C27.0703 18.5463 27.6464 20.4832 28.594 22.2476C29.5691 24.0769 30.9422 25.6684 32.614 26.9067L32.697 26.9722L32.758 27.0142C33.2593 27.3815 33.783 27.7179 34.326 28.0215C36.4884 29.2154 38.9112 29.87 41.3856 29.9288C41.5549 29.9288 41.7243 29.9372 41.9072 29.9372C42.09 29.9372 42.2458 29.9372 42.4287 29.9288C44.9026 29.8706 47.325 29.216 49.4866 28.0215C50.0296 27.7179 50.5533 27.3815 51.0547 27.0142L51.1156 26.9722L51.1986 26.9067C52.8705 25.668 54.2441 24.0767 55.2203 22.2476C56.1662 20.4825 56.7422 18.5459 56.9137 16.5544C56.9128 16.5404 56.9128 16.5264 56.9137 16.5124C56.9272 16.3663 56.9374 16.2202 56.9475 16.0742V15.9869C56.956 15.8509 56.9611 15.7132 56.9662 15.5739V15.4647C56.9662 15.2968 56.9662 15.1172 56.9662 14.9426C56.9887 12.0839 56.3351 9.51679 55.0053 7.24127ZM50.7363 20.651C49.9326 22.2299 48.6868 23.5456 47.1481 24.4403C45.6184 25.3246 43.8777 25.7667 41.9258 25.7667C39.9739 25.7667 38.2326 25.3246 36.7018 24.4403C35.1631 23.5456 33.9173 22.2299 33.1136 20.651C32.25 19.009 31.8182 17.1062 31.8182 14.9426C31.8182 12.779 32.25 10.884 33.1136 9.25768C33.9191 7.69091 35.1655 6.38925 36.7018 5.51028C38.2315 4.64059 39.9728 4.20574 41.9258 4.20574C43.8788 4.20574 45.6196 4.64059 47.1481 5.51028C48.6844 6.38925 49.9307 7.69091 50.7363 9.25768C51.5999 10.8862 52.0317 12.7812 52.0317 14.9426C52.0317 17.1039 51.5999 19.0067 50.7363 20.651Z" fill="#FEC34D"/>
<path id="Vector_3" d="M52.1858 32.0141C51.1071 24.5226 44.4793 21.8363 44.1982 21.7255L45.7002 17.8975C46.0728 18.0402 54.8579 21.5123 56.2871 31.4331L52.1858 32.0141Z" fill="#0EB9E8"/>
<path id="Vector_4" d="M24.5317 44C13.2455 44 5.29686 37.6637 4.93787 37.3732L7.55749 34.1916C7.64046 34.2504 15.9176 40.7983 26.9108 39.7909C38.0396 38.7617 45.9424 31.4298 46.0203 31.3559L48.8804 34.3276C48.5197 34.6634 39.9056 42.7223 27.2969 43.8808C26.3554 43.9597 25.4308 44 24.5317 44Z" fill="#0EB9E8"/>
</g>
<defs>
<clipPath id="clip0_222_887">
<rect width="57" height="44" fill="white"/>
</clipPath>
</defs>
</svg>
