<svg width="46" height="46" viewBox="0 0 46 46" fill="none" xmlns="http://www.w3.org/2000/svg">
<g clip-path="url(#clip0_269_2517)">
<path opacity="0.994" fill-rule="evenodd" clip-rule="evenodd" d="M34.8145 5.97461C34.4646 7.12521 33.8657 8.11349 33.0176 8.93946C28.1049 5.71452 22.894 5.16048 17.3848 7.27735C13.1706 9.17045 10.2356 12.2701 8.58008 16.5762C7.27919 16.2526 6.47059 16.7317 6.1543 18.0137C4.66611 17.9593 3.87248 18.6781 3.77344 20.1699C2.72823 20.0044 2.00948 20.4236 1.61719 21.4277C1.54634 21.7504 1.56131 22.0648 1.66211 22.3711C0.906775 22.4782 0.337767 22.8526 -0.0449219 23.4941C-0.0449219 22.9551 -0.0449219 22.416 -0.0449219 21.877C0.876341 14.5967 4.4102 8.98151 10.5566 5.03126C16.7305 1.52624 23.1694 0.957227 29.873 3.32422C31.6313 4.02332 33.2784 4.90678 34.8145 5.97461Z" fill="#4BCCE2"/>
<path fill-rule="evenodd" clip-rule="evenodd" d="M33.0176 8.93945C32.0892 9.89781 31.1608 10.8561 30.2324 11.8144C29.6435 11.7366 29.1044 11.8564 28.6152 12.1738C28.2483 11.0924 27.4996 10.5982 26.3691 10.6914C25.9752 10.8059 25.6307 11.0005 25.3359 11.2754C24.511 10.5307 23.6275 10.4557 22.6855 11.0508C22.5155 11.2577 22.3358 11.4524 22.1465 11.6348C21.2499 11.2626 20.4863 11.4423 19.8555 12.1738C19.6726 12.4488 19.5679 12.7484 19.541 13.0723C18.9701 12.9115 18.4311 12.9864 17.9238 13.2969C17.5693 13.5907 17.2848 13.9351 17.0703 14.3301C16.1586 14.0001 15.3949 14.2098 14.7793 14.959C13.625 14.3604 12.6816 14.6 11.9492 15.6777C10.5444 14.9357 9.54114 15.2951 8.93945 16.7559C8.81727 16.6948 8.69749 16.6348 8.58008 16.5762C10.2356 12.27 13.1706 9.17044 17.3848 7.27734C22.894 5.16047 28.1049 5.71451 33.0176 8.93945Z" fill="#C7EFF6"/>
<path opacity="0.994" fill-rule="evenodd" clip-rule="evenodd" d="M39.9355 11.0957C43.9295 16.9706 44.9926 23.3495 43.125 30.2324C40.5305 38.0978 35.2447 43.144 27.2676 45.3711C26.1569 45.626 25.0489 45.8206 23.9434 45.9551C23.4043 45.9551 22.8652 45.9551 22.3262 45.9551C22.3262 45.9252 22.3262 45.8952 22.3262 45.8652C22.9093 45.69 23.2687 45.3007 23.4043 44.6973C23.4882 44.6013 23.5182 44.4816 23.4941 44.3379C23.7828 44.3657 24.0523 44.3358 24.3027 44.248C25.0336 44.1313 25.4978 43.7121 25.6953 42.9902C25.7401 42.6621 25.7551 42.3328 25.7402 42.002C27.2467 42.0226 27.9655 41.2739 27.8965 39.7559C29.1344 39.4072 29.6137 38.5986 29.334 37.3301C34.2616 35.4122 37.5409 31.9382 39.1719 26.9082C40.6247 21.8812 39.891 17.2093 36.9707 12.8926C37.8007 12.0428 38.789 11.4439 39.9355 11.0957Z" fill="#4BCCE2"/>
<ellipse cx="23.2864" cy="23.3687" rx="17.314" ry="16.953" transform="rotate(-0.274135 23.2864 23.3687)" fill="#C7EFF6"/>
<path fill-rule="evenodd" clip-rule="evenodd" d="M36.9707 12.8926C39.891 17.2093 40.6247 21.8812 39.1719 26.9082C37.5409 31.9382 34.2616 35.4122 29.334 37.3301C29.2044 37.2115 29.1446 37.0618 29.1543 36.8809C30.2555 36.5365 30.7196 35.7878 30.5469 34.6348C30.4348 34.3806 30.3001 34.1411 30.1426 33.916C31.2554 33.2408 31.5249 32.3124 30.9511 31.1309C31.72 30.4591 31.8997 29.6654 31.4902 28.75C32.578 28.3273 33.0272 27.5336 32.8379 26.3691C34.024 26.0954 34.5481 25.3467 34.4101 24.123C34.3652 23.9883 34.3203 23.8535 34.2754 23.7188C35.2776 22.9896 35.5022 22.0761 34.9492 20.9785C34.8144 20.8438 34.6797 20.709 34.5449 20.5742C35.1371 20.0256 35.3318 19.3518 35.1289 18.5527C34.8262 17.9212 34.3321 17.5169 33.6465 17.3398C33.9979 16.878 34.1476 16.3539 34.0957 15.7676C34.6048 15.2285 35.1139 14.6895 35.623 14.1504C36.0722 13.7311 36.5215 13.3119 36.9707 12.8926Z" fill="#C7EFF6"/>
<path opacity="0.992" fill-rule="evenodd" clip-rule="evenodd" d="M37.8692 -0.0449219C38.4082 -0.0449219 38.9473 -0.0449219 39.4863 -0.0449219C40.2024 0.171526 40.8163 0.560849 41.3281 1.12305C42.1817 2.57552 43.3346 3.72852 44.7871 4.58203C45.3494 5.09388 45.7387 5.70781 45.9551 6.42383C45.9551 6.96289 45.9551 7.50195 45.9551 8.04102C45.5751 9.48391 44.6466 10.3673 43.1699 10.6914C42.0701 10.6711 40.9919 10.8059 39.9356 11.0957C38.789 11.4439 37.8007 12.0428 36.9707 12.8926C36.5215 13.3119 36.0723 13.7311 35.6231 14.1504C35.592 13.3365 35.6369 12.5279 35.7578 11.7246C36.127 10.5076 36.5463 9.30961 37.0156 8.13086C37.0756 7.5918 37.0756 7.05273 37.0156 6.51367C36.7525 5.14465 36.5579 3.76705 36.4317 2.38086C36.3295 1.65454 36.5092 1.01065 36.9707 0.449219C36.9502 0.413392 36.9202 0.398418 36.8809 0.404297C37.1887 0.202094 37.518 0.0523538 37.8692 -0.0449219Z" fill="#FFE1B7"/>
<path fill-rule="evenodd" clip-rule="evenodd" d="M36.8809 0.404304C36.9202 0.398425 36.9502 0.413399 36.9707 0.449226C36.5092 1.01066 36.3295 1.65454 36.4316 2.38087C36.5579 3.76706 36.7525 5.14466 37.0156 6.51368C37.0756 7.05274 37.0756 7.5918 37.0156 8.13087C36.5463 9.30962 36.127 10.5076 35.7578 11.7246C35.6369 12.5279 35.592 13.3365 35.623 14.1504C35.1139 14.6895 34.6048 15.2285 34.0957 15.7676C33.5567 14.4652 32.6284 14.0758 31.3105 14.5996C31.8244 13.3226 31.465 12.3942 30.2324 11.8145C31.1608 10.8561 32.0892 9.89782 33.0176 8.93946C33.8657 8.11349 34.4646 7.12521 34.8145 5.97462C35.0619 4.69416 35.2566 3.4064 35.3984 2.11134C35.6858 1.35322 36.1799 0.784207 36.8809 0.404304Z" fill="#FED682"/>
<path fill-rule="evenodd" clip-rule="evenodd" d="M30.2324 11.8145C31.465 12.3942 31.8244 13.3226 31.3105 14.5996C31.2551 14.6096 31.2102 14.6395 31.1758 14.6895C30.8483 13.5295 30.0846 13.0354 28.8848 13.207C28.5424 13.3335 28.2428 13.5281 27.9863 13.791C27.141 13.0517 26.2425 12.9769 25.291 13.5664C25.1576 13.789 24.9928 13.9837 24.7969 14.1504C23.4074 13.7147 22.494 14.1938 22.0566 15.5879C20.9573 15.3891 20.1787 15.8084 19.7207 16.8457C18.7769 16.4719 17.9983 16.6815 17.3848 17.4746C16.2225 16.8386 15.2792 17.0782 14.5547 18.1934C13.1532 17.4494 12.1499 17.8087 11.5449 19.2715C10.5446 18.7668 9.69109 18.9465 8.98438 19.8106C8.30441 21.0721 7.91509 22.4197 7.81641 23.8535C7.30655 29.8086 8.89379 35.1094 12.5781 39.7559C15.2368 42.7396 18.4862 44.7761 22.3262 45.8652C22.3262 45.8952 22.3262 45.9252 22.3262 45.9551C21.5475 45.9551 20.7689 45.9551 19.9902 45.9551C11.4952 44.861 5.40089 40.4586 1.70703 32.7481C0.796543 30.5434 0.212559 28.2673 -0.0449219 25.9199C-0.0449219 25.1113 -0.0449219 24.3027 -0.0449219 23.4942C0.337767 22.8526 0.906775 22.4782 1.66211 22.3711C1.56131 22.0648 1.54634 21.7504 1.61719 21.4277C2.00948 20.4237 2.72823 20.0044 3.77344 20.1699C3.87248 18.6781 4.66611 17.9593 6.1543 18.0137C6.47059 16.7317 7.27919 16.2526 8.58008 16.5762C8.69749 16.6349 8.81728 16.6948 8.93945 16.7559C9.54114 15.2951 10.5444 14.9357 11.9492 15.6777C12.6816 14.6 13.625 14.3604 14.7793 14.959C15.3949 14.2098 16.1586 14.0001 17.0703 14.3301C17.2848 13.9351 17.5693 13.5908 17.9238 13.2969C18.4311 12.9864 18.9701 12.9115 19.541 13.0723C19.5679 12.7484 19.6726 12.4489 19.8555 12.1738C20.4863 11.4423 21.2499 11.2626 22.1465 11.6348C22.3358 11.4524 22.5155 11.2577 22.6855 11.0508C23.6275 10.4558 24.511 10.5307 25.3359 11.2754C25.6307 11.0005 25.9752 10.8059 26.3691 10.6914C27.4996 10.5982 28.2483 11.0924 28.6152 12.1738C29.1044 11.8564 29.6435 11.7367 30.2324 11.8145Z" fill="#FE9518"/>
<path fill-rule="evenodd" clip-rule="evenodd" d="M31.3106 14.5996C32.6284 14.0758 33.5567 14.4652 34.0957 15.7676C34.1476 16.3539 33.998 16.8779 33.6465 17.3398C34.3321 17.5169 34.8262 17.9212 35.1289 18.5527C35.3318 19.3518 35.1372 20.0256 34.5449 20.5742C34.6797 20.709 34.8145 20.8437 34.9492 20.9785C35.5022 22.0761 35.2776 22.9896 34.2754 23.7187C34.3203 23.8535 34.3652 23.9883 34.4102 24.123C34.5482 25.3467 34.024 26.0954 32.8379 26.3691C33.0272 27.5336 32.578 28.3273 31.4902 28.75C31.8998 29.6654 31.7201 30.4591 30.9512 31.1308C31.5249 32.3124 31.2554 33.2408 30.1426 33.916C30.3001 34.1411 30.4349 34.3806 30.5469 34.6348C30.7197 35.7878 30.2555 36.5365 29.1543 36.8808C29.1446 37.0618 29.2044 37.2115 29.334 37.3301C29.6137 38.5986 29.1345 39.4072 27.8965 39.7558C27.9655 41.2739 27.2467 42.0226 25.7402 42.0019C25.7551 42.3327 25.7402 42.6621 25.6953 42.9902C25.4978 43.7121 25.0336 44.1313 24.3027 44.248C24.0033 44.248 23.7038 44.248 23.4043 44.248C23.4043 44.3978 23.4043 44.5475 23.4043 44.6973C23.2687 45.3007 22.9094 45.69 22.3262 45.8652C18.4862 44.776 15.2368 42.7396 12.5781 39.7558C8.8938 35.1094 7.30656 29.8086 7.81642 23.8535C7.9151 22.4197 8.30442 21.072 8.98439 19.8105C9.6911 18.9465 10.5446 18.7668 11.5449 19.2715C12.1499 17.8087 13.1532 17.4493 14.5547 18.1933C15.2792 17.0782 16.2226 16.8386 17.3848 17.4746C17.9983 16.6815 18.7769 16.4718 19.7207 16.8457C20.1787 15.8084 20.9573 15.3891 22.0567 15.5879C22.494 14.1938 23.4075 13.7146 24.7969 14.1504C24.9928 13.9836 25.1576 13.7889 25.291 13.5664C26.2426 12.9768 27.141 13.0517 27.9863 13.791C28.2428 13.5281 28.5424 13.3334 28.8848 13.207C30.0846 13.0353 30.8483 13.5295 31.1758 14.6894C31.2102 14.6395 31.2551 14.6096 31.3106 14.5996Z" fill="#FEAE10"/>
<path fill-rule="evenodd" clip-rule="evenodd" d="M28.9746 17.4746C30.2582 17.411 31.007 18.01 31.2207 19.2715C31.0216 20.6149 30.243 21.1989 28.8848 21.0234C27.6999 20.4658 27.3556 19.5823 27.8516 18.373C28.1383 17.9541 28.5127 17.6546 28.9746 17.4746Z" fill="#FF9517"/>
<path fill-rule="evenodd" clip-rule="evenodd" d="M20.4394 18.373C21.4822 18.4412 21.7966 18.9503 21.3828 19.9004C20.7724 20.3268 20.2632 20.2369 19.8554 19.6309C19.7377 19.0581 19.9323 18.6388 20.4394 18.373Z" fill="#FF9517"/>
<path fill-rule="evenodd" clip-rule="evenodd" d="M16.127 19.0918C17.5894 18.9933 18.1435 19.6522 17.7891 21.0684C17.2387 21.7431 16.5649 21.8779 15.7676 21.4727C15.2249 20.834 15.18 20.1601 15.6328 19.4512C15.8138 19.3436 15.9786 19.2239 16.127 19.0918Z" fill="#FF9517"/>
<path fill-rule="evenodd" clip-rule="evenodd" d="M27.5371 22.2363C28.7954 22.0731 29.4093 22.6121 29.3789 23.8535C29.0466 24.7011 28.4327 25.0156 27.5371 24.7969C26.7414 24.2964 26.5467 23.6225 26.9531 22.7754C27.1385 22.5747 27.3331 22.395 27.5371 22.2363Z" fill="#FF9517"/>
<path fill-rule="evenodd" clip-rule="evenodd" d="M3.27929 24.4824C4.54982 24.569 5.04396 25.2279 4.76171 26.459C4.24049 27.2112 3.56666 27.376 2.74023 26.9531C1.89008 25.9042 2.06977 25.0807 3.27929 24.4824Z" fill="#EF8318"/>
<path fill-rule="evenodd" clip-rule="evenodd" d="M16.666 26.2793C17.7142 26.3519 18.0287 26.8609 17.6094 27.8066C17.1055 28.1854 16.6263 28.1555 16.1719 27.7168C15.9045 27.0845 16.0692 26.6053 16.666 26.2793Z" fill="#FF9517"/>
<path fill-rule="evenodd" clip-rule="evenodd" d="M4.71677 29.1543C5.70723 29.2789 5.99174 29.7881 5.57029 30.6816C5.2704 30.9348 4.926 31.0097 4.53708 30.9062C4.04071 30.644 3.876 30.2397 4.04294 29.6934C4.23464 29.455 4.45925 29.2753 4.71677 29.1543Z" fill="#EF8318"/>
<path fill-rule="evenodd" clip-rule="evenodd" d="M13.6113 29.1543C14.9428 29.2416 15.437 29.9305 15.0938 31.2207C14.4806 31.9244 13.7768 32.0293 12.9824 31.5352C12.3384 30.5 12.548 29.7064 13.6113 29.1543Z" fill="#FF9517"/>
<path fill-rule="evenodd" clip-rule="evenodd" d="M18.373 32.748C20.1261 32.8673 20.77 33.7657 20.3047 35.4434C19.7206 36.3258 18.927 36.5804 17.9238 36.207C16.9609 35.5646 16.7064 34.711 17.1601 33.6465C17.4774 33.2238 17.8817 32.9243 18.373 32.748Z" fill="#FF9517"/>
<path fill-rule="evenodd" clip-rule="evenodd" d="M20.709 36.9707C21.6058 36.9242 21.9802 37.3434 21.832 38.2285C21.5857 38.6705 21.2114 38.8351 20.709 38.7226C20.2126 38.4604 20.0479 38.0561 20.2148 37.5098C20.337 37.2831 20.5017 37.1034 20.709 36.9707Z" fill="#FF9517"/>
<path fill-rule="evenodd" clip-rule="evenodd" d="M16.4863 38.1387C17.6658 38.0585 18.2498 38.5976 18.2383 39.7559C17.8954 40.6835 17.2515 40.9979 16.3066 40.6992C15.5654 40.1737 15.4008 39.4999 15.8125 38.6777C16.0024 38.4423 16.227 38.2626 16.4863 38.1387Z" fill="#FF9517"/>
<path fill-rule="evenodd" clip-rule="evenodd" d="M24.3027 44.248C24.0523 44.3358 23.7828 44.3657 23.4941 44.3379C23.5182 44.4816 23.4882 44.6013 23.4043 44.6973C23.4043 44.5475 23.4043 44.3978 23.4043 44.248C23.7037 44.248 24.0033 44.248 24.3027 44.248Z" fill="#FF8624"/>
</g>
<defs>
<clipPath id="clip0_269_2517">
<rect width="46" height="46" fill="white"/>
</clipPath>
</defs>
</svg>
